<?xml version="1.0" encoding="UTF-8" standalone="no"?>
<svg
   xmlns:dc="http://purl.org/dc/elements/1.1/"
   xmlns:cc="http://creativecommons.org/ns#"
   xmlns:rdf="http://www.w3.org/1999/02/22-rdf-syntax-ns#"
   xmlns:svg="http://www.w3.org/2000/svg"
   xmlns="http://www.w3.org/2000/svg"
   viewBox="0 0 674.66669 674.66669"
   height="674.66669"
   width="674.66669"
   xml:space="preserve"
   id="svg2"
   version="1.1"><metadata
     id="metadata8"><rdf:RDF><cc:Work
         rdf:about=""><dc:format>image/svg+xml</dc:format><dc:type
           rdf:resource="http://purl.org/dc/dcmitype/StillImage" /></cc:Work></rdf:RDF></metadata><defs
     id="defs6" /><g
     transform="matrix(1.3333333,0,0,-1.3333333,0,674.66667)"
     id="g10"><g
       transform="scale(0.1)"
       id="g12"><path
         id="path14"
         style="fill:#26ab4d;fill-opacity:1;fill-rule:evenodd;stroke:none"
         d="m 2529.45,4276.07 c 962.59,0 1742.92,-780.34 1742.92,-1742.93 0,-962.59 -780.33,-1742.917 -1742.92,-1742.917 -962.59,0 -1742.919,780.327 -1742.919,1742.917 0,962.59 780.329,1742.93 1742.919,1742.93" /><path
         id="path16"
         style="fill:#fad606;fill-opacity:1;fill-rule:evenodd;stroke:none"
         d="m 2529.45,4132.27 197.46,-611.71 642.79,1.24 -520.75,-376.82 199.8,-610.95 -519.3,378.82 -519.3,-378.82 199.81,610.95 -520.75,376.82 642.78,-1.24 z M 3488.6,3663.36 C 3853.64,3374.71 4088.34,2925.15 4088.34,2420.07 4088.34,1549 3390.4,842.867 2529.45,842.867 1668.5,842.867 970.559,1549 970.559,2420.07 c 0,505.08 234.701,954.64 599.741,1243.29 h 0.01 c 29.59,21.87 56.42,31.9 61.57,24.35 4.92,-7.23 -6.81,-17.22 -30.45,-41.92 -236.69,-236.83 -383.06,-563.69 -383.06,-924.73 0,-723.08 586.99,-1309.26 1311.08,-1309.26 724.09,0 1311.08,586.18 1311.08,1309.26 0,361.04 -146.37,687.9 -383.06,924.73 v 0 c -23.64,24.7 -35.36,34.69 -30.45,41.92 5.15,7.55 31.98,-2.48 61.58,-24.35 z m -31.13,-17.57 v 0 0" /><path
         id="path18"
         style="fill:#fad606;fill-opacity:1;fill-rule:evenodd;stroke:none"
         d="m 2529.45,4309.11 c 980.84,0 1775.96,-795.13 1775.96,-1775.97 0,-980.83 -795.12,-1775.96 -1775.96,-1775.96 -980.83,0 -1775.962,795.13 -1775.962,1775.96 0,980.84 795.132,1775.97 1775.962,1775.97 z m 0,-58.07 c 948.77,0 1717.9,-769.13 1717.9,-1717.9 0,-948.76 -769.13,-1717.894 -1717.9,-1717.894 -948.77,0 -1717.895,769.134 -1717.895,1717.894 0,948.77 769.125,1717.9 1717.895,1717.9" /><path
         id="path20"
         style="fill:#fad606;fill-opacity:1;fill-rule:evenodd;stroke:none"
         d="m 2529.45,5057.88 c 1394.37,0 2524.74,-1130.36 2524.74,-2524.74 C 5054.19,1138.77 3923.82,8.40625 2529.45,8.40625 1135.08,8.40625 4.71484,1138.77 4.71484,2533.14 4.71484,3927.52 1135.08,5057.88 2529.45,5057.88 Z m 0,-82.54 c 1348.78,0 2442.19,-1093.41 2442.19,-2442.2 C 4971.64,1184.36 3878.23,90.9492 2529.45,90.9492 1180.67,90.9492 87.2578,1184.36 87.2578,2533.14 c 0,1348.79 1093.4122,2442.2 2442.1922,2442.2" /><path
         id="path22"
         style="fill:#d01e25;fill-opacity:1;fill-rule:evenodd;stroke:none"
         d="m 753.488,2533.14 c 0,980.84 795.132,1775.97 1775.962,1775.97 980.84,0 1775.96,-795.13 1775.96,-1775.97 0,-980.83 -795.12,-1775.96 -1775.96,-1775.96 -980.83,0 -1775.962,795.13 -1775.962,1775.96 z m 4218.152,0 c 0,1348.79 -1093.41,2442.2 -2442.19,2442.2 C 1180.67,4975.34 87.2578,3881.93 87.2578,2533.14 87.2578,1184.36 1180.67,90.9492 2529.45,90.9492 c 1348.78,0 2442.19,1093.4108 2442.19,2442.1908" /><path
         id="path24"
         style="fill:#fad606;fill-opacity:1;fill-rule:evenodd;stroke:none"
         d="m 3393.34,4574.35 79.82,31.56 25.61,-14.5 c -24.58,-45.03 -42.54,-90.37 -43.99,-140.64 -18.81,9.52 -29.2,21.27 -36.62,32.34 -35.38,-85.08 -107.97,-152.03 -177.48,-169.87 l 5.36,27.3 c 62.79,56.4 115.53,147.59 147.3,233.81" /><path
         id="path26"
         style="fill:#fad606;fill-opacity:1;fill-rule:evenodd;stroke:none"
         d="m 1358.02,4397.29 3.49,85.76 23.64,17.54 c 31.2,-40.72 65.38,-75.51 110.75,-97.21 -16.33,-13.33 -31.28,-18.08 -44.4,-20.37 63.44,-66.82 95.23,-160.32 83.37,-231.1 l -22.79,15.98 c -26.12,80.25 -88.11,165.42 -154.06,229.4" /><path
         id="path28"
         style="fill:#fad606;fill-opacity:1;fill-rule:evenodd;stroke:none"
         d="m 1085.68,4019.79 c 3.78,-4.8 -52.41,-65.58 -39.84,6.32 1.7,9.71 17.86,21.52 39.84,-6.32 z m 120.4,72.25 c -4.31,3.57 -6.21,13.28 -3.12,33.07 1.27,8.1 14.18,14.82 29.23,5.05 27.95,-18.13 -20.25,-42.96 -26.11,-38.12 z m 22.85,266.42 c -24.52,27.97 -4.72,85.5 9.96,83.22 34.4,-5.34 66.23,-55.27 96.43,-81.36 4.15,-3.59 -12.07,-2.57 -41.04,3.13 -0.78,0.16 30.52,-33.29 54.04,-81.01 11.87,-24.06 32.02,-52.71 33.33,-78.32 2.05,-40.07 -26.13,-74.44 -82.45,-85.33 l -8.57,-1.79 c 4.22,-32.07 -2.37,-54.71 -20.51,-66.57 -38.2,-24.97 -71.26,8.43 -98.16,-8.13 -2.28,-6.25 -2.7,-22.02 -11.56,-42.25 l -37.49,-36.01 c -12.62,-21.71 -37.54,-45.39 -71.64,-31.33 -80.954,61.45 -67.25,140.14 -47.22,152.7 31.81,19.95 68.03,17.92 119.36,-21.59 7.24,9.46 14.68,19.7 17.43,24.02 15.48,27.15 16.18,49.81 17.46,66.79 4.61,61.56 54.38,25.69 92.56,27.26 26.64,1.09 66.65,10.79 76.11,38.56 1.85,5.45 1.53,10.65 -1.84,15.32 -25.27,34.96 -37.68,55.93 -96.2,122.69" /><path
         id="path30"
         style="fill:#fad606;fill-opacity:1;fill-rule:evenodd;stroke:none"
         d="m 940.215,3868.42 c -4.84,5.78 -20.387,14.32 -24.867,10.78 -35.993,-28.51 -44.641,-21.03 -51.008,15.81 -0.84,4.88 -11.602,49.73 -12.012,76.47 -0.578,37.66 10.176,48.18 36.043,31.12 57.027,-37.59 141.269,-112.69 146.859,-191.79 3.7,-52.28 -27.25,-101.09 -67.3,-148.81 -7.352,4.67 -10.16,9.11 -8.485,14.18 25.633,77.53 27.637,124.03 -19.23,192.24" /><path
         id="path32"
         style="fill:#fad606;fill-opacity:1;fill-rule:evenodd;stroke:none"
         d="m 828.895,3698.04 c -4.168,6.29 -19.989,17.93 -23.532,13.45 -25.312,-32.02 -33.945,-14.86 -48.953,21.33 -1.898,4.57 -10.117,32.47 -11.047,59.19 -1.015,29.33 23.457,46.71 47.278,26.92 52.535,-43.63 101.621,-83.3 102.086,-162.57 0.347,-59.96 -52.946,-104.82 -112.071,-113.34 0.446,-13.37 0.309,-25.36 -0.48,-36.15 l 0.375,-0.17 c -4.836,-137.57 -82.043,-194.25 -212.973,-114.27 -17.473,10.68 -30.668,12.77 -51.265,17.04 -10.54,2.18 -22.633,2.71 -42.79,2.06 -10.878,-2.4 -20.253,7.31 -21.531,11.63 -6.347,21.44 -45.14,61.86 15.688,55.41 22.179,-2.36 41.984,-6.55 67.425,-18.48 27.907,-13.09 40.141,-18.18 65.571,-33.38 108.535,-38.7 127.617,94.45 114.976,154.8 -6.507,31.07 0.25,52.55 24.364,39.02 8.121,-4.55 15.425,-7.74 21.773,-7.32 42.375,2.79 81.457,46.43 65.106,84.83" /><path
         id="path34"
         style="fill:#fad606;fill-opacity:1;fill-rule:evenodd;stroke:none"
         d="m 830.07,3410.64 -15.289,39.43 c -1.902,4.89 0.559,10.45 5.449,12.35 l 39.438,15.29 c 0.949,0.37 1.93,0.58 2.906,0.63 l -12.82,33.07 c -1.899,4.9 0.551,10.46 5.449,12.36 l 39.434,15.28 c 4.886,1.9 10.453,-0.56 12.347,-5.45 l 15.289,-39.43 c 1.895,-4.89 -0.562,-10.46 -5.453,-12.35 l -39.437,-15.29 c -0.953,-0.37 -1.93,-0.57 -2.903,-0.62 l 12.825,-33.09 c 1.894,-4.89 -0.563,-10.45 -5.461,-12.34 l -39.422,-15.28 c -4.899,-1.9 -10.457,0.54 -12.352,5.44" /><path
         id="path36"
         style="fill:#fad606;fill-opacity:1;fill-rule:evenodd;stroke:none"
         d="m 586.688,3570.86 -18.368,38.09 c -2.285,4.73 -0.269,10.46 4.453,12.74 l 38.102,18.37 c 0.918,0.45 1.875,0.73 2.848,0.85 l -15.403,31.97 c -2.281,4.73 -0.277,10.46 4.45,12.74 l 38.105,18.36 c 4.719,2.28 10.461,0.27 12.738,-4.45 l 18.367,-38.1 c 2.278,-4.72 0.266,-10.47 -4.453,-12.74 l -38.105,-18.37 c -0.922,-0.44 -1.879,-0.72 -2.848,-0.85 l 15.41,-31.96 c 2.278,-4.73 0.266,-10.47 -4.464,-12.75 l -38.09,-18.35 c -4.731,-2.28 -10.465,-0.29 -12.742,4.45" /><path
         id="path38"
         style="fill:#fad606;fill-opacity:1;fill-rule:evenodd;stroke:none"
         d="m 655.188,2969.35 -28.141,31.57 c -3.496,3.92 -3.137,9.99 0.777,13.47 l 31.574,28.15 c 0.762,0.68 1.606,1.21 2.508,1.6 l -23.605,26.49 c -3.496,3.92 -3.145,9.98 0.773,13.48 l 31.578,28.14 c 3.911,3.48 9.985,3.13 13.473,-0.78 l 28.137,-31.58 c 3.492,-3.91 3.14,-9.98 -0.774,-13.47 l -31.578,-28.14 c -0.765,-0.68 -1.609,-1.21 -2.504,-1.6 l 23.61,-26.5 c 3.492,-3.91 3.14,-9.98 -0.786,-13.48 l -31.57,-28.13 c -3.922,-3.49 -9.98,-3.14 -13.472,0.78" /><path
         id="path40"
         style="fill:#fad606;fill-opacity:1;fill-rule:evenodd;stroke:none"
         d="m 298.086,2759.97 -31.242,28.5 c -3.883,3.54 -4.153,9.61 -0.617,13.49 l 28.507,31.25 c 0.684,0.75 1.469,1.37 2.325,1.85 l -26.207,23.91 c -3.883,3.54 -4.157,9.61 -0.622,13.49 l 28.512,31.24 c 3.528,3.87 9.606,4.15 13.481,0.61 l 31.242,-28.5 c 3.875,-3.53 4.152,-9.61 0.617,-13.48 l -28.508,-31.25 c -0.691,-0.76 -1.476,-1.37 -2.324,-1.85 l 26.211,-23.92 c 3.879,-3.53 4.152,-9.61 0.613,-13.49 l -28.504,-31.23 c -3.543,-3.88 -9.605,-4.16 -13.484,-0.62" /><path
         id="path42"
         style="fill:#fad606;fill-opacity:1;fill-rule:evenodd;stroke:none"
         d="m 2167.57,4529.99 c -2.28,5.1 0.32,14.66 11.86,31.02 4.73,6.7 19.27,7 28.44,-8.42 17.02,-28.64 -37.2,-29.53 -40.3,-22.6 z m -15.09,77.29 c 31.42,53.12 60.13,-1.08 95.05,-16.6 5.86,-2.6 12.23,-4.89 18.97,-6.76 -4.91,-39.41 -10.62,-113.68 -59.96,-119.62 -45.31,-5.45 -60.15,39.14 -91.61,36.22 -31.81,-30.39 -49.22,-57.13 -115.75,-21.4 -36.69,-62.7 -147,-119.63 -222.95,-44.42 -38.24,-69.62 -108.62,-101.96 -133.11,-29.57 -26.15,77.35 82.7,122.81 96.42,123.74 -1.81,19.56 6.69,36.94 16.24,42.59 16.68,9.88 38.85,-2.69 38.83,-7.01 -0.31,-45.49 13.31,-71.66 31.8,-84.6 29.14,-20.39 96.89,-3.55 114.89,17.84 11.57,9.63 14.85,27.59 28.43,51.01 15.94,27.46 31.42,42.13 42.79,16.93 3.82,-8.5 7.8,-15.39 13.16,-18.83 49.91,-31.97 102.52,19.42 126.8,60.48 z m -403.6,-140.9 c -26.26,-42.7 -63.73,-50.28 -58.54,-25.73 7.7,20.06 40.14,43.67 52.07,41.88 l 6.47,-16.15" /><path
         id="path44"
         style="fill:#fad606;fill-opacity:1;fill-rule:evenodd;stroke:none"
         d="m 547.848,3248.55 c -6.313,4.13 -25.442,8.59 -26.93,3.07 -10.629,-39.41 -25.328,-27.05 -53.402,0.29 -3.543,3.45 -22.102,25.84 -33.5,50.03 -12.508,26.55 3.125,52.18 32.824,43.39 65.484,-19.37 126.234,-36.45 157.941,-109.12 23.629,-54.14 -0.777,-126.41 -52.777,-156.48 6.422,-11.73 11.699,-22.5 15.859,-32.49 l 0.414,0.02 c 2.723,-6.6 5.086,-13.63 7.032,-21.12 l 0.019,-0.06 0.008,-0.04 c 0.711,-2.54 1.336,-5.04 1.867,-7.48 l -0.105,0.03 c 0.277,-1.3 0.55,-2.61 0.804,-3.93 10.989,-57.09 -28.449,-113.94 -78.711,-128.35 44.922,-65.51 42.082,-142.92 -33.578,-132.16 -80.836,11.5 -72.379,129.16 -67.019,141.83 -18.274,7.2 -29.965,22.63 -30.707,33.69 -1.301,19.34 19.914,33.47 23.758,31.5 40.468,-20.77 69.96,-20.4 89.851,-9.72 31.34,16.83 38.836,59.28 27.856,84.98 -3.387,14.67 -17.938,25.68 -32.723,48.37 -17.34,26.6 -23.469,47.02 4.152,45.81 9.321,-0.4 16.813,0.95 22.746,3.28 38.621,15.15 59.067,81.45 24.321,114.66 z m -69.254,-372.39 c 26.281,-42.68 16.168,-79.55 -3.41,-63.86 -14.446,15.92 -20.899,55.52 -13.926,65.36 l 17.336,-1.5" /><path
         id="path46"
         style="fill:#fad606;fill-opacity:1;fill-rule:evenodd;stroke:none"
         d="m 2967.23,4402.92 c 0.91,8.66 3.63,13.15 8.93,13.9 14.64,2.09 28.01,4.42 40.35,7.27 30.45,8.86 70.4,22 107.87,42.25 6.2,49.7 -2.93,104.99 -28.28,153.98 l -20.99,-15.52 c -1.98,-1.48 -43.11,46.97 -45.32,67.82 1.68,42.41 73.33,81.16 90.21,53.37 29.81,-49.08 62.05,-157.94 44.14,-234.25 47.74,36.32 81.87,88.72 69.2,165.07 -6.09,36.69 61.23,59.86 69.19,47.31 18.63,-29.41 2.02,-86.24 2.27,-126.14 0.04,-5.49 -9.89,7.38 -24.67,32.94 -0.4,0.69 -4.95,-44.89 -25.36,-94.02 -22.18,-53.35 -70.61,-108.39 -128.63,-126.08 -43.35,-13.2 -115.6,1.63 -158.91,12.1" /><path
         id="path48"
         style="fill:#fad606;fill-opacity:1;fill-rule:evenodd;stroke:none"
         d="m 2511.8,4546.48 c 21.61,-66.3 107.55,-86.98 192.18,-32.61 20.04,-57.17 92.63,-47.16 133.66,-22.37 100.45,-80.54 199.8,28.55 160.42,134.07 l -49.84,-32.75 c 15.05,-88.29 -96.02,-71.57 -55.47,1.76 3.86,12.62 -36.95,10.16 -43.02,-5.52 l -12.47,-17.83 c -32.02,-45.81 -83.89,-32.81 -81.04,12.87 0.67,10.66 6.17,23.13 10.26,32.97 3.45,12.63 -33.12,10.17 -38.56,-5.52 -45.19,-72.11 -191.92,-88.87 -179.31,43.55 1.9,19.88 2.57,43.06 4.44,68.99 2.03,28.04 2.32,55.81 -3.43,77.39 -15.74,59.13 -39.6,8.42 -57.34,-5.2 -3.59,-2.76 -9.28,-14.98 -3.15,-24.28 7.83,-18.58 11.68,-30.03 13.41,-40.68 9.01,-55.46 -9.61,-111.43 -46.29,-153 2.59,78.34 -50.39,178.75 -89.24,221.03 -22.01,23.95 -84.66,-28.11 -77.99,-70.03 6.26,-20.01 56.09,-59.44 57.75,-57.61 l 17.53,19.34 c 34.47,-43.06 54.27,-95.48 57.94,-145.44 -32.77,-27.2 -69.37,-47.93 -97.49,-62.6 -11.54,-5.21 -24.2,-10.12 -38.14,-15.03 -5.04,-1.78 -6.84,-6.72 -6.03,-15.39 44.52,-1.77 118.28,-2.14 158.2,19.32 30.21,16.24 55.08,43.61 73.02,74.57" /><path
         id="path50"
         style="fill:#fad606;fill-opacity:1;fill-rule:evenodd;stroke:none"
         d="m 4753.82,2883.57 77.22,-37.5 6.62,-28.68 c -49.8,-12.31 -95.36,-29.73 -133.39,-62.64 -5.68,20.3 -4.06,35.9 -0.91,48.85 -86.62,-31.43 -185.03,-23.18 -245.16,15.99 l 23.76,14.5 c 84,-8.16 186.85,14.61 271.86,49.48" /><path
         id="path52"
         style="fill:#fad606;fill-opacity:1;fill-rule:evenodd;stroke:none"
         d="m 4352.7,3604.45 c 14.31,7.16 110.87,15.46 97.64,-10.11 -22.01,-42.54 -83.18,6.19 -97.64,10.11 z m 59.95,-263.19 c 4.76,3.08 14.61,1.84 32.21,-7.67 7.18,-3.88 9.19,-18.98 -5.04,-30.79 -26.44,-21.93 -33.65,34.25 -27.17,38.46 z m -136.13,393.35 c -5.76,-2.32 -45.48,72.75 18.69,38 8.66,-4.69 14.71,-24.54 -18.69,-38 z m -64.73,-20.15 c -16.56,19.34 -31.07,51.62 -6.88,81.48 84.06,62.24 154.31,24.26 159.84,0.3 8.79,-38.07 -4.7,-73.78 -58.63,-113.11 -4.32,-25.84 8.4,-32.23 14.38,-42.81 78.91,27.78 153.42,25.61 177.32,-5.9 22.21,-29.3 8.24,-84.09 -94.27,-113.09 -0.55,-56.36 0.55,-78.88 27.02,-113.65 20.4,-24.28 41.55,-32.38 57.1,-39.17 56.44,-24.63 5.93,-62.62 -5.37,-101.17 -13.84,-47.21 3.29,-150.51 65.58,-197.44 33.64,44.57 17.58,92.74 -33.93,143.48 l 31.05,50.91 c 55.28,-30.2 79,-56.72 95.98,-101.7 22.39,-59.37 -22.41,-188.63 72.88,-144.29 3.04,23.41 13.14,34.76 35.71,44.66 l 65.47,-28.92 -7.37,-30.09 c -34.72,-9.99 -60.89,-33.95 -84.29,-62.47 0,0 -13.56,17.75 -12.22,40.49 -105.48,-29.95 -72.2,50.54 -125.25,66.83 -8.68,-33.07 -6.71,-70.85 2.79,-111.95 l -79.59,-35.65 c 23.27,217.18 -120.75,133.11 -77.06,344.5 -46.16,3.28 -73.83,18.21 -80.09,45.26 -10.7,46.21 31.84,68.31 25.25,100.52 -13.82,11.62 -32.02,15.55 -33.94,67.75 -77.24,-42.29 -150.84,19.61 -78.56,155.64 -23.25,15.02 -21.58,30.2 -30.72,50.9 -156.62,-30.97 -195.04,60.52 -213.01,172.39 8.33,2.92 13.53,2.29 16.31,-2.44 45.23,-76.96 79.01,-119.07 174.5,-121.26 z m 81.53,-147.03 c 141.92,-26.65 -15.82,-147.4 0,0" /><path
         id="path54"
         style="fill:#fad606;fill-opacity:1;fill-rule:evenodd;stroke:none"
         d="m 4038.38,3944.53 c 6.81,3.26 18.92,16.22 16.6,21.43 -18.73,41.93 -9.34,48.45 27.93,45.52 4.94,-0.39 51.06,-1.06 77.07,-7.28 36.63,-8.75 44.16,-21.76 21.24,-42.61 -50.52,-45.97 -144.13,-109.02 -222.15,-94.88 -51.57,9.34 -91.21,51.39 -127.55,102 6.34,5.97 11.34,7.6 15.84,4.72 68.79,-44.01 113.35,-57.45 191.02,-28.9" /><path
         id="path56"
         style="fill:#fad606;fill-opacity:1;fill-rule:evenodd;stroke:none"
         d="m 3902.44,4108.31 c 7.17,2.33 22.65,14.42 19.29,19.04 -24.02,33.01 -5.17,36.7 33.73,41.4 4.91,0.6 33.99,1 59.97,-5.3 28.52,-6.93 38.67,-35.18 13.2,-52.79 -56.18,-38.84 -107.84,-76.23 -184.07,-54.51 -148.96,42.44 -186.58,104.8 -199.41,135.49 -8.17,19.57 -11.08,40.97 -7.47,61 -78.61,-11.39 -146.81,25.34 -103.77,88.47 45.99,67.45 147.84,7.94 156.84,-2.46 14.54,13.22 33.54,16.89 43.79,12.69 17.93,-7.37 21.23,-32.65 17.78,-35.22 -49.62,-36.91 -55.23,-72.89 -42.75,-98.96 12.59,-26.32 59.79,-86.45 192.87,-108.85 z m -255.95,185.24 c -49.9,-4.74 -78.52,20.61 -55.79,31.25 20.65,5.94 59.04,-5.75 64.79,-16.35 l -9,-14.9" /><path
         id="path58"
         style="fill:#fad606;fill-opacity:1;fill-rule:evenodd;stroke:none"
         d="m 4382.7,3068.23 44.8,-9.09 c 5.57,-1.12 9.18,-6.59 8.02,-12.15 l -10.07,-48.36 c -1.16,-5.56 -6.66,-9.18 -12.23,-8.06 l -44.81,9.09 c -5.56,1.13 -9.17,6.6 -8.01,12.16 l 10.07,48.36 c 1.16,5.56 6.66,9.18 12.23,8.05" /><path
         id="path60"
         style="fill:#fad606;fill-opacity:1;fill-rule:evenodd;stroke:none"
         d="m 325.766,3276.8 34.527,29.98 c 4.289,3.72 10.82,3.24 14.52,-1.06 L 407,3268.25 c 3.699,-4.31 3.219,-10.88 -1.07,-14.6 l -34.528,-29.97 c -4.285,-3.73 -10.816,-3.25 -14.519,1.06 l -32.184,37.47 c -3.699,4.31 -3.222,10.88 1.067,14.59" /><path
         id="path62"
         style="fill:#fad606;fill-opacity:1;fill-rule:evenodd;stroke:none"
         d="m 3631.32,4498.45 41.02,20.53 c 5.09,2.56 11.34,0.47 13.89,-4.62 l 20.54,-41.01 c 0.49,-0.99 0.81,-2.03 0.97,-3.07 l 34.41,17.23 c 5.09,2.55 11.34,0.46 13.89,-4.62 l 20.54,-41.02 c 2.55,-5.09 0.46,-11.34 -4.63,-13.89 l -41.01,-20.53 c -5.09,-2.55 -11.34,-0.47 -13.89,4.62 l -20.53,41.01 c -0.5,0.99 -0.82,2.03 -0.98,3.08 l -34.41,-17.24 c -5.09,-2.54 -11.34,-0.46 -13.89,4.63 l -20.54,41.01 c -2.54,5.09 -0.47,11.34 4.62,13.89" /><path
         id="path64"
         style="fill:#fad606;fill-opacity:1;fill-rule:evenodd;stroke:none"
         d="m 3656.62,4068.87 37.2,20.14 c 4.61,2.49 10.44,0.76 12.93,-3.86 l 20.14,-37.19 c 0.49,-0.9 0.81,-1.84 0.99,-2.8 l 31.2,16.89 c 4.62,2.5 10.44,0.76 12.94,-3.85 l 20.13,-37.19 c 2.5,-4.62 0.76,-10.44 -3.85,-12.94 l -37.19,-20.14 c -4.62,-2.49 -10.44,-0.76 -12.94,3.86 l -20.13,37.19 c -0.49,0.9 -0.82,1.84 -0.99,2.8 l -31.21,-16.89 c -4.61,-2.5 -10.44,-0.76 -12.93,3.85 l -20.14,37.19 c -2.5,4.62 -0.76,10.45 3.85,12.94" /><path
         id="path66"
         style="fill:#fad606;fill-opacity:1;fill-rule:evenodd;stroke:none"
         d="m 1946.36,4360.96 18.61,37.98 c 2.31,4.71 8.06,6.68 12.77,4.37 l 37.98,-18.62 c 0.92,-0.45 1.73,-1.03 2.43,-1.71 l 15.62,31.86 c 2.31,4.72 8.06,6.68 12.77,4.37 l 37.98,-18.61 c 4.71,-2.31 6.68,-8.06 4.37,-12.78 l -18.62,-37.97 c -2.31,-4.71 -8.06,-6.68 -12.77,-4.37 l -37.98,18.62 c -0.92,0.45 -1.73,1.03 -2.43,1.7 l -15.62,-31.85 c -2.31,-4.72 -8.06,-6.68 -12.77,-4.37 l -37.98,18.61 c -4.71,2.31 -6.67,8.06 -4.36,12.77" /><path
         id="path68"
         style="fill:#fad606;fill-opacity:1;fill-rule:evenodd;stroke:none"
         d="m 1606.32,4588.22 12.98,40.25 c 1.61,5 7.02,7.77 12.02,6.16 l 40.25,-12.99 c 0.97,-0.32 1.86,-0.77 2.65,-1.35 l 10.89,33.78 c 1.62,4.99 7.02,7.76 12.02,6.14 l 40.25,-12.98 c 5,-1.61 7.76,-7.02 6.15,-12.02 l -12.99,-40.25 c -1.61,-4.99 -7.02,-7.76 -12.01,-6.15 l -40.25,12.99 c -0.98,0.31 -1.86,0.77 -2.65,1.34 l -10.9,-33.76 c -1.61,-5 -7.02,-7.77 -12.01,-6.16 l -40.25,12.99 c -5,1.61 -7.77,7.02 -6.15,12.01" /><path
         id="path70"
         style="fill:#fad606;fill-opacity:1;fill-rule:evenodd;stroke:none"
         d="m 1073.61,3770.39 c 90.98,58.86 156.62,128.92 72.18,261.81 l -33.78,-41.34 c 31.8,-87.23 7.51,-134.22 -42.35,-204.42 -3.1,-4.36 -1.71,-9.42 3.95,-16.05" /><path
         id="path72"
         style="fill:#fad606;fill-opacity:1;fill-rule:evenodd;stroke:none"
         d="m 2845.07,4713.95 c 80.05,-0.03 -41.46,-23.44 -37.91,-48.85 0.75,-5.38 4.94,-7.11 10.81,-6.64 32.71,2.61 92.62,30.25 136.34,86.71 -0.86,6.95 -7.22,10.05 -15.3,11.15 -5.4,0.73 -57.05,11.72 -92.48,0 -8.21,-2.72 -15.98,-8.73 -30,-33.34 -23.87,-41.89 13.66,-9.03 28.54,-9.03" /><path
         id="path74"
         style="fill:#fad606;fill-opacity:1;fill-rule:evenodd;stroke:none"
         d="m 1822.12,4701.96 c -2.33,-2.65 -12.63,-29.41 6.74,-30.21 22.78,-8.24 202.16,56.42 248.08,117.77 28.01,37.43 1.13,16.41 -25.94,-0.7 -39.21,-24.79 -157.67,-73.94 -228.88,-86.86" /><path
         id="path76"
         style="fill:#fad606;fill-opacity:1;fill-rule:evenodd;stroke:none"
         d="m 4667.11,3288.95 c -3.24,1.4 -40.37,0.13 -35.18,-18.54 27.59,-45.43 56.3,-85.54 107.11,-99.01 45.18,-11.98 15.96,3.98 -8.63,24.46 -35.65,29.69 -46.32,42.69 -63.3,93.09" /><path
         id="path78"
         style="fill:#fad606;fill-opacity:1;fill-rule:evenodd;stroke:none"
         d="m 2054.65,4717.13 c -3.41,2.26 -7.08,1.6 -8.89,-2.07 -9.64,-19.58 -13.97,-38.28 -22.8,-42.76 -3.79,-1.92 -13.55,-10.28 -19.78,-5.9 -1.86,1.31 -5.07,9.16 -8.55,14.31 -9,13.31 -18.2,-7.25 -20.42,-15.47 -2.98,-10.98 -10.45,-18.47 -16.3,-21.36 -22.35,-11.02 -30.31,0.33 -29.92,19.14 0.29,14.15 -17.69,15.86 -19.07,-26.9 -0.42,-13.16 -0.53,-32.07 13.28,-37.91 30.78,-13 50.55,16.11 56.18,30.62 0.97,2.49 5.23,0.87 8.31,-0.55 20.36,-9.4 34.96,-3.71 45.32,8.41 23.74,27.79 25.18,89.42 22.64,80.44" /><path
         id="path80"
         style="fill:#fad606;fill-opacity:1;fill-rule:evenodd;stroke:none"
         d="m 3991.36,4276.43 c -1.07,3.95 -4.26,5.87 -8.05,4.31 -20.16,-8.34 -35.76,-19.53 -45.35,-17.06 -4.12,1.05 -16.96,1.21 -18.75,8.62 -0.53,2.21 2.24,10.22 3.02,16.39 2.03,15.94 -18.45,6.57 -25.55,1.87 -9.48,-6.28 -20.04,-6.98 -26.34,-5.28 -24.07,6.48 -22.55,20.26 -9.84,34.13 9.56,10.43 -2.82,23.59 -32.09,-7.62 -8.99,-9.6 -21.57,-23.74 -15.04,-37.24 14.53,-30.09 48.59,-21.27 62.41,-14.09 2.37,1.23 4.51,-2.8 5.88,-5.9 9.08,-20.51 23.8,-25.87 39.59,-23.61 36.18,5.21 77.94,50.54 70.11,45.48" /><path
         id="path82"
         style="fill:#fad606;fill-opacity:1;fill-rule:evenodd;stroke:none"
         d="m 343.949,3178.96 c -3.574,-2 -4.668,-5.56 -2.23,-8.85 12.992,-17.54 27.64,-29.95 27.578,-39.84 -0.024,-4.26 2.941,-16.75 -3.805,-20.29 -2.015,-1.06 -10.461,-0.32 -16.637,-1.05 -15.953,-1.91 -1.882,-19.5 4.403,-25.24 8.398,-7.67 11.648,-17.74 11.531,-24.27 -0.434,-24.92 -14.168,-26.8 -30.715,-17.84 -12.445,6.74 -22.199,-8.47 15.196,-29.27 11.5,-6.4 28.269,-15.15 39.781,-5.54 25.648,21.41 8.816,52.31 -1.512,63.96 -1.769,2 1.625,5.06 4.293,7.14 17.684,13.8 19.309,29.38 13.27,44.14 -13.848,33.83 -67.977,63.31 -61.153,56.95" /><path
         id="path84"
         style="fill:#fad606;fill-opacity:1;fill-rule:evenodd;stroke:none"
         d="m 3105.11,4316.6 c 2.7,-6.04 9.58,-11.45 7.27,-11.51 -6.69,-0.18 -18.45,-1.99 -24.47,-7.89 -4.13,-5.31 -0.3,-14.58 3.42,-14.74 23.99,-1 54.55,9.75 83.53,-4.09 3.9,10.82 24.18,16.68 16.82,23.01 -7.59,6.53 -31.43,3.2 -46.87,23.1 -9.09,11.71 0.76,36.46 24.32,12.25 21.3,-21.86 33.67,11.25 32.62,13.79 -4.93,11.75 -25.92,19.79 -45.82,20.6 -29.26,1.2 -63.84,-25.41 -50.82,-54.52" /><path
         id="path86"
         style="fill:#fad606;fill-opacity:1;fill-rule:evenodd;stroke:none"
         d="m 4560.03,3471.07 c -12.9,11.42 -1.8,4.95 -28.28,11.94 -5.73,1.51 -30.18,4.69 -30.32,-1.88 -0.21,-10.14 22.1,-9.17 29.71,-32.8 6.58,-20.43 -52.4,25.81 -56.7,25.27 -11.09,-1.41 35.06,-60.81 102.2,-57.81 19.44,10.73 -10.48,45.39 -16.61,55.28" /><path
         id="path88"
         style="fill:#fad606;fill-opacity:1;fill-rule:evenodd;stroke:none"
         d="m 4224.49,3920.59 c -10.04,-8.94 -17.2,-32.48 -15.99,-43.61 7.8,-3.51 43.57,5.92 50.05,9.12 3.38,13.22 1.15,17.25 10.08,29.95 11.3,16.05 22.55,2.61 22.16,20.94 -17.02,6.76 -52.54,-4.13 -66.3,-16.4" /><path
         id="path90"
         style="fill:#fad606;fill-opacity:1;fill-rule:evenodd;stroke:none"
         d="m 2168.39,4722.83 c -0.05,-13.44 12.66,-34.5 21.76,-41.04 7.82,3.46 24.71,36.36 26.66,43.32 -7.58,11.35 -12.06,12.38 -15.54,27.52 -4.39,19.14 13.13,18.52 -0.77,30.48 -16.39,-8.14 -32.03,-41.84 -32.11,-60.28" /><path
         id="path92"
         style="fill:#fad606;fill-opacity:1;fill-rule:evenodd;stroke:none"
         d="m 757.789,3912.93 c 10.195,-8.76 34.477,-12.73 45.352,-10.06 2.441,8.2 -11.653,42.4 -15.676,48.4 -13.559,1.59 -17.25,-1.15 -31.031,6.02 -17.407,9.07 -5.575,22 -23.688,19.18 -4.441,-17.76 11.059,-51.52 25.043,-63.54" /><path
         id="path94"
         style="fill:#fad606;fill-opacity:1;fill-rule:evenodd;stroke:none"
         d="m 1167.63,4275.02 c 11.2,-7.45 35.78,-8.41 46.25,-4.41 1.42,8.43 -16.77,40.64 -21.5,46.1 -13.66,-0.08 -16.99,-3.26 -31.54,2.17 -18.39,6.85 -8.23,21.14 -25.87,16.12 -2.22,-18.17 17.31,-49.77 32.66,-59.98" /><path
         id="path96"
         style="fill:#fad606;fill-opacity:1;fill-rule:evenodd;stroke:none"
         d="m 701.664,3242.23 c 12.477,-5.02 36.746,-0.97 46.18,5.06 -0.324,8.55 -24.668,36.4 -30.41,40.78 -13.352,-2.84 -15.965,-6.64 -31.321,-4.27 -19.394,2.99 -12.351,19.04 -28.597,10.54 1.504,-18.25 27.047,-45.23 44.148,-52.11" /><path
         id="path98"
         style="fill:#fad606;fill-opacity:1;fill-rule:evenodd;stroke:none"
         d="m 2639.57,4776.05 c 32.3,-23.61 11.36,-84.59 25.52,-92.39 23.29,-12.82 21.87,165.88 -19.61,113.31 -3.38,-4.29 -9.71,-13.02 -5.91,-20.92" /><path
         id="path100"
         style="fill:#fad606;fill-opacity:1;fill-rule:evenodd;stroke:none"
         d="m 496.953,3533 c 36.953,15.34 78.195,-34.22 92.215,-26.16 23.047,13.23 -130.398,104.83 -107.02,42.09 1.907,-5.13 6.086,-15.07 14.805,-15.93" /><path
         id="path102"
         style="fill:#fad606;fill-opacity:1;fill-rule:nonzero;stroke:none"
         d="m 1094.27,4170.22 c -7.19,-15.04 -20.7,-25.34 -33.76,-35.11 -7.55,-5.59 26.65,73.66 20.53,94.22 -25.49,-17.13 -48.25,4.75 -48.99,30.01 -1.01,34.46 31.08,50.43 51.51,20.23 23.82,-35.19 29.21,-70.66 10.71,-109.35 z m -41.35,90.67 c -1.13,-4.42 2.47,-8.97 8.04,-10.15 5.57,-1.19 11,1.44 12.13,5.87 1.13,4.42 -2.46,8.97 -8.04,10.16 -5.56,1.18 -11,-1.45 -12.13,-5.88" /><path
         id="path104"
         style="fill:#ffdf00;fill-opacity:1;fill-rule:evenodd;stroke:none"
         d="m 1571.17,1938.86 -38.66,-1026.809 305.63,-90.86 -55.23,1100.869 -187.82,25.72 -23.92,-8.92" /><path
         id="path106"
         style="fill:none;stroke:#26ab4d;stroke-width:39.99969864;stroke-linecap:butt;stroke-linejoin:miter;stroke-miterlimit:2.61313009;stroke-dasharray:none;stroke-opacity:1"
         d="m 3757.42,1075.71 102.73,91.38 -162.27,307.36 c -9.93,19.39 -10.56,39.8 7.39,58.16 l 228.19,197.21 c 12.09,8.19 25.04,6.75 38.21,1.03 l 125.8,-5.7 c 84.6,-22.63 145.63,131.29 204.82,128.48 l 63.99,-1.2 c 32.52,-0.19 34.42,12.94 10.32,18.09 -146.08,54.39 -143.46,-6.84 -239.89,-27.66 l -198.08,150.26 c -25.51,16.43 -35.93,9.96 -54.65,-9.92 l -314.49,-334.12 c -19.65,-21.64 -32.48,-23.87 -29.05,12.2 l 11.79,212.08 c 252.96,353.23 398.79,146.6 599.1,177.58 71.72,18.74 130.13,68.51 177.08,145.07 19.16,31.99 17.9,47.85 -24.27,28.4 -146.26,-30.97 -261.58,27.96 -379.5,12.85 -137.68,-17.65 -261.98,-82.73 -367.12,-268.85 l 15.52,279.13 44.99,59.98 c 50.69,-60.39 127.85,-45.64 150.32,30.27 41.95,-50.52 115.76,-52.37 148.08,11.03 71.49,-80.81 158.43,37.79 57.82,68.15 l 59.89,28.91 c 46.96,-52.61 128.17,-40.62 134.32,36.63 0.07,0.78 0.04,1.56 0.05,2.34 6.18,0.45 12.06,1.5 17.49,3.08 13.71,-11.07 31.7,-17.77 51.41,-17.77 42.98,0 77.83,31.89 77.83,71.24 0,39.35 -34.85,71.24 -77.83,71.24 -37.17,0 -68.25,-23.85 -75.97,-55.75 -9.81,-0.05 -19.04,-1.63 -27.1,-4.39 -34.77,43.66 -112.8,18.95 -123.75,-51.88 -18.3,3.34 -34.9,3.27 -49.77,-8.26 -54.03,22.14 -89.48,7.22 -137.32,-34.08 -24.87,-23 -46.06,-32.37 -73.69,-38.83 -30.28,41.3 -82.91,33.67 -124.56,-23.12 -11.7,-3.79 -15.66,10.49 -7.23,19.62 l 72.28,61.95 c 60.14,-49.45 121.59,-17.5 110.48,29.94 61.61,-24.95 110.83,2.76 107.39,62.99 60.2,-51.13 127.28,-14.6 125.97,58.85 53.34,-53.61 141.06,-22.1 139.39,52.66 39.39,-58.75 112.45,-64.02 151.12,-42.19 17.76,10.03 32.64,30.73 19.33,50.5 -6.15,9.14 -16.42,6.94 -22.79,15.44 11.22,36.48 -37.33,51.96 -118.87,48.07 -125.83,-6 -283.37,-82.9 -434.58,-161.65 l -6.96,14.72 c 18.81,18.02 43.5,35.05 73.31,69.7 47.22,-9.24 82.62,1.21 92.66,53.95 l 23.75,11.35 c 45.58,-26.55 81.94,0.56 100.16,35.11 26.42,-1.11 50.33,5.92 71.24,22.71 13.79,19.03 45.62,-20.51 93.8,-6.36 56.03,16.47 53.22,83.63 -4.44,100.88 -21.73,6.5 -46.98,1.55 -67.93,-26.11 -5.67,-4.8 -8.66,-4.46 -14.65,-3.78 h -0.01 c -2.26,26.13 -24.19,46.63 -50.91,46.63 -28.22,0 -51.1,-22.88 -51.1,-51.11 0,-8.06 1.86,-15.69 5.19,-22.47 -4.12,-1.94 -8.43,-4.92 -9.76,-9.6 -3.39,26.82 -26.29,47.55 -54.03,47.55 -30.08,0 -54.47,-24.38 -54.47,-54.46 0,-15.33 6.34,-29.17 16.52,-39.07 -13.11,6.78 -20.73,2.54 -22.4,-13.56 l -0.37,-0.15 c 0.03,0.81 0.05,1.62 0.05,2.44 0,28.23 -22.87,51.11 -51.1,51.11 -28.24,0 -51.11,-22.88 -51.11,-51.11 0,-15.29 6.71,-29.01 17.36,-38.38 v 0 c -5.48,-10.92 -13.98,-13.78 -23.59,-13.68 v 0 c -93.63,89.74 -181.45,-32.08 -95.48,-99.72 -37.34,-0.69 -86.05,-31.31 -51.11,-109.45 l -67.81,-54.94 17.08,307.19 c 1.63,31.15 -4.77,54.28 -17.25,59.74 -29.97,13.12 -82.26,9.47 -129.23,-10.75 -13.63,-5.86 -28.38,-16.04 -41.54,-41.29 -43.32,-83.14 -153.25,-343.04 -167.64,-414.92 -1.5,-7.48 -1.96,-12.92 -1.21,-15.92 0.98,-9.29 20.69,7.14 37.2,19.72 35.51,27.07 87.23,74.75 123.88,103.41 l -18.57,-375.88 c -164.26,252.24 -390.21,261.72 -556.04,163.69 -98.93,-67.97 -128.35,-156.45 -239.55,-256.06 35.45,3.44 65.73,9.97 93.96,38.2 1.78,-51.93 -11.71,-148.34 22.71,-199.28 -12.24,-72.85 71.92,-119.05 33.81,-230.26 20.24,15.6 44.58,24.44 52.93,97.06 61,-56.57 148.05,-82.25 228.8,-70.44 -32.73,-7.59 -60.73,-22.04 -68.85,-41.54 l -249.78,-494.12 c -5.03,-6.53 1.21,-31.18 20.65,-16.07 l 310.63,241.39 c 17.46,16.17 30.02,12.14 40.77,-5.82 l 287.23,-457.498 117.7,10.324 27.64,481.664 c -1.19,22.36 16.63,37 32.96,49.68 22.63,17.58 29.43,33.74 44.15,5.03 z m 302.12,1094.56 c -88.9,20.94 -203.08,33.44 -332.07,-63.06 273.28,83.98 265.71,-29.25 423.35,28.92 11.39,4.47 17.94,8.96 16.57,13 -3.75,11.03 -17.67,-0.1 -107.85,21.14 z m -674.61,-131.47 -8,-162.07 c -34.84,75.2 -74,141.05 -126.1,190.67 -89.48,85.21 -231.05,131.1 -337.52,47.44 -42.56,-33.43 -66.56,-80.07 -72.9,-127.24 -11.43,-84.94 34.4,-171.61 132.28,-186.02 61.18,-1.72 110.23,30.63 111.52,90.87 29.13,7.01 47.77,33.48 45.43,67.63 72.15,-1.9 89.77,-72.58 66.48,-149.01 -26.3,-86.33 -112.06,-172.02 -236.91,-156.89 -53.35,6.47 -107.45,31.81 -150.96,73.1 10.63,6.22 17.76,17.75 17.76,30.94 0,19.79 -16.04,35.83 -35.83,35.83 -10.68,0 -20.27,-4.68 -26.84,-12.1 -19.04,30.06 -33.28,64.86 -40.7,103.88 4.9,-2.06 10.27,-3.2 15.91,-3.2 22.67,0 41.05,18.38 41.05,41.05 0,22.67 -18.38,41.05 -41.05,41.05 -7.87,0 -15.23,-2.22 -21.48,-6.07 0.38,12.55 1.41,25.41 3.16,38.59 2.13,25.67 7.86,50.81 16.66,74.87 8.83,-13.67 24.2,-22.73 41.68,-22.73 27.37,0 49.56,22.2 49.56,49.57 0,27.37 -22.19,49.56 -49.56,49.56 l -0.83,-0.01 c 22.66,31.26 51.02,58.68 83.43,80.42 0.07,-27.31 22.23,-49.43 49.56,-49.43 27.37,0 49.56,22.18 49.56,49.55 0,15.72 -7.32,29.73 -18.74,38.81 28.77,9.16 59.17,14.18 90.5,14.21 11.29,0.02 22.27,-0.48 32.97,-1.44 -5.45,-6.72 -8.71,-15.28 -8.71,-24.6 0,-21.6 17.51,-39.11 39.11,-39.11 21.6,0 39.11,17.51 39.11,39.11 0,3.88 -0.57,7.63 -1.62,11.17 112.73,-35.26 188.25,-128.55 252.02,-228.4 z m -10.5,-212.63 -28.48,-576.48 c -2.91,-26.55 -16.38,-16.53 -21.8,-0.2 l -170.34,358.18 c -14.71,24.62 -63.91,31.42 -109.97,24.94 86.57,19.68 162.48,84.49 185.95,203.05 49.9,84.32 -13.77,86.04 -7.24,162.11 l -14.45,-48.53 c -20.9,33.1 -54.09,47.01 -107.38,38.2 33.48,-112.57 -130.7,-105.53 -130.61,3.61 5.69,80.81 81.27,117.51 136.25,116.18 104.27,-2.53 190.7,-104.77 268.07,-281.06 z m -64.39,-807.54 -310.05,524.91 c -53.3,61.55 131.71,73.21 141.6,31.15 l 187.81,-419.87 c 21.09,-37.71 -2.32,-53.87 -18.14,-23.54 l -133.1,274.84 c -7.22,14.62 -44.91,-7.4 -34.07,-25.82 l 176.93,-333.98 c 19.88,-28.64 -3.77,-42.28 -10.98,-27.69 z m 228.48,411.24 c -22.54,-16 -26.5,22.2 -10.32,37.17 l 355.39,332.03 c 35.65,36.62 51.68,-10 21.48,-35.69 z m 54.73,131.13 c -14.98,-12.22 -32.53,12.21 -6.2,36.14 l 283.22,313.13 c 19.8,25.78 44.14,-3.84 16.22,-32.28 z m -141.98,1178.95 c -4.39,37.56 116.24,65.53 106.73,15.67 l -44.26,-1056.25 c -5.17,-28.91 -28.92,-65.34 -34.08,-44.69 l 42.34,850.07 c -0.17,18.75 -28.23,9.63 -37.69,-5.68 l -35.02,-797.62 c -3.17,-72.32 -33.33,9.48 -31.06,46.21 z" /><path
         id="path108"
         style="fill:#fad606;fill-opacity:1;fill-rule:evenodd;stroke:none"
         d="m 3757.42,1075.71 102.73,91.38 -162.27,307.36 c -9.93,19.39 -10.56,39.8 7.39,58.16 l 228.19,197.21 c 12.09,8.19 25.04,6.75 38.21,1.03 l 125.8,-5.7 c 84.6,-22.63 145.63,131.29 204.82,128.48 l 63.99,-1.2 c 32.52,-0.19 34.42,12.94 10.32,18.09 -146.08,54.39 -143.46,-6.84 -239.89,-27.66 l -198.08,150.26 c -25.51,16.43 -35.93,9.96 -54.65,-9.92 l -314.49,-334.12 c -19.65,-21.64 -32.48,-23.87 -29.05,12.2 l 11.79,212.08 c 252.96,353.23 398.79,146.6 599.1,177.58 71.72,18.74 130.13,68.51 177.08,145.07 19.16,31.99 17.9,47.85 -24.27,28.4 -146.26,-30.97 -261.58,27.96 -379.5,12.85 -137.68,-17.65 -261.98,-82.73 -367.12,-268.85 l 15.52,279.13 44.99,59.98 c 50.69,-60.39 127.85,-45.64 150.32,30.27 41.95,-50.52 115.76,-52.37 148.08,11.03 71.49,-80.81 158.43,37.79 57.82,68.15 l 59.89,28.91 c 46.96,-52.61 128.17,-40.62 134.32,36.63 0.07,0.78 0.04,1.56 0.05,2.34 6.18,0.45 12.06,1.5 17.49,3.08 13.71,-11.07 31.7,-17.77 51.41,-17.77 42.98,0 77.83,31.89 77.83,71.24 0,39.35 -34.85,71.24 -77.83,71.24 -37.17,0 -68.25,-23.85 -75.97,-55.75 -9.81,-0.05 -19.04,-1.63 -27.1,-4.39 -34.77,43.66 -112.8,18.95 -123.75,-51.88 -18.3,3.34 -34.9,3.27 -49.77,-8.26 -54.03,22.14 -89.48,7.22 -137.32,-34.08 -24.87,-23 -46.06,-32.37 -73.69,-38.83 -30.28,41.3 -82.91,33.67 -124.56,-23.12 -11.7,-3.79 -15.66,10.49 -7.23,19.62 l 72.28,61.95 c 60.14,-49.45 121.59,-17.5 110.48,29.94 61.61,-24.95 110.83,2.76 107.39,62.99 60.2,-51.13 127.28,-14.6 125.97,58.85 53.34,-53.61 141.06,-22.1 139.39,52.66 39.39,-58.75 112.45,-64.02 151.12,-42.19 17.76,10.03 32.64,30.73 19.33,50.5 -6.15,9.14 -16.42,6.94 -22.79,15.44 11.22,36.48 -37.33,51.96 -118.87,48.07 -125.83,-6 -283.37,-82.9 -434.58,-161.65 l -6.96,14.72 c 18.81,18.02 43.5,35.05 73.31,69.7 47.22,-9.24 82.62,1.21 92.66,53.95 l 23.75,11.35 c 45.58,-26.55 81.94,0.56 100.16,35.11 26.42,-1.11 50.33,5.92 71.24,22.71 13.79,19.03 45.62,-20.51 93.8,-6.36 56.03,16.47 53.22,83.63 -4.44,100.88 -21.73,6.5 -46.98,1.55 -67.93,-26.11 -5.67,-4.8 -8.66,-4.46 -14.65,-3.78 h -0.01 c -2.26,26.13 -24.19,46.63 -50.91,46.63 -28.22,0 -51.1,-22.88 -51.1,-51.11 0,-8.06 1.86,-15.69 5.19,-22.47 -4.12,-1.94 -8.43,-4.92 -9.76,-9.6 -3.39,26.82 -26.29,47.55 -54.03,47.55 -30.08,0 -54.47,-24.38 -54.47,-54.46 0,-15.33 6.34,-29.17 16.52,-39.07 -13.11,6.78 -20.73,2.54 -22.4,-13.56 l -0.37,-0.15 c 0.03,0.81 0.05,1.62 0.05,2.44 0,28.23 -22.87,51.11 -51.1,51.11 -28.24,0 -51.11,-22.88 -51.11,-51.11 0,-15.29 6.71,-29.01 17.36,-38.38 v 0 c -5.48,-10.92 -13.98,-13.78 -23.59,-13.68 v 0 c -93.63,89.74 -181.45,-32.08 -95.48,-99.72 -37.34,-0.69 -86.05,-31.31 -51.11,-109.45 l -67.81,-54.94 17.08,307.19 c 1.63,31.15 -4.77,54.28 -17.25,59.74 -29.97,13.12 -82.26,9.47 -129.23,-10.75 -13.63,-5.86 -28.38,-16.04 -41.54,-41.29 -43.32,-83.14 -153.25,-343.04 -167.64,-414.92 -1.5,-7.48 -1.96,-12.92 -1.21,-15.92 0.98,-9.29 20.69,7.14 37.2,19.72 35.51,27.07 87.23,74.75 123.88,103.41 l -18.57,-375.88 c -164.26,252.24 -390.21,261.72 -556.04,163.69 -98.93,-67.97 -128.35,-156.45 -239.55,-256.06 35.45,3.44 65.73,9.97 93.96,38.2 1.78,-51.93 -11.71,-148.34 22.71,-199.28 -12.24,-72.85 71.92,-119.05 33.81,-230.26 20.24,15.6 44.58,24.44 52.93,97.06 61,-56.57 148.05,-82.25 228.8,-70.44 -32.73,-7.59 -60.73,-22.04 -68.85,-41.54 l -249.78,-494.12 c -5.03,-6.53 1.21,-31.18 20.65,-16.07 l 310.63,241.39 c 17.46,16.17 30.02,12.14 40.77,-5.82 l 287.23,-457.498 117.7,10.324 27.64,481.664 c -1.19,22.36 16.63,37 32.96,49.68 22.63,17.58 29.43,33.74 44.15,5.03 z m 302.12,1094.56 c -88.9,20.94 -203.08,33.44 -332.07,-63.06 273.28,83.98 265.71,-29.25 423.35,28.92 11.39,4.47 17.94,8.96 16.57,13 -3.75,11.03 -17.67,-0.1 -107.85,21.14 z m -674.61,-131.47 -8,-162.07 c -34.84,75.2 -74,141.05 -126.1,190.67 -89.48,85.21 -231.05,131.1 -337.52,47.44 -42.56,-33.43 -66.56,-80.07 -72.9,-127.24 -11.43,-84.94 34.4,-171.61 132.28,-186.02 61.18,-1.72 110.23,30.63 111.52,90.87 29.13,7.01 47.77,33.48 45.43,67.63 72.15,-1.9 89.77,-72.58 66.48,-149.01 -26.3,-86.33 -112.06,-172.02 -236.91,-156.89 -53.35,6.47 -107.45,31.81 -150.96,73.1 10.63,6.22 17.76,17.75 17.76,30.94 0,19.79 -16.04,35.83 -35.83,35.83 -10.68,0 -20.27,-4.68 -26.84,-12.1 -19.04,30.06 -33.28,64.86 -40.7,103.88 4.9,-2.06 10.27,-3.2 15.91,-3.2 22.67,0 41.05,18.38 41.05,41.05 0,22.67 -18.38,41.05 -41.05,41.05 -7.87,0 -15.23,-2.22 -21.48,-6.07 0.38,12.55 1.41,25.41 3.16,38.59 2.13,25.67 7.86,50.81 16.66,74.87 8.83,-13.67 24.2,-22.73 41.68,-22.73 27.37,0 49.56,22.2 49.56,49.57 0,27.37 -22.19,49.56 -49.56,49.56 l -0.83,-0.01 c 22.66,31.26 51.02,58.68 83.43,80.42 0.07,-27.31 22.23,-49.43 49.56,-49.43 27.37,0 49.56,22.18 49.56,49.55 0,15.72 -7.32,29.73 -18.74,38.81 28.77,9.16 59.17,14.18 90.5,14.21 11.29,0.02 22.27,-0.48 32.97,-1.44 -5.45,-6.72 -8.71,-15.28 -8.71,-24.6 0,-21.6 17.51,-39.11 39.11,-39.11 21.6,0 39.11,17.51 39.11,39.11 0,3.88 -0.57,7.63 -1.62,11.17 112.73,-35.26 188.25,-128.55 252.02,-228.4 z m -10.5,-212.63 -28.48,-576.48 c -2.91,-26.55 -16.38,-16.53 -21.8,-0.2 l -170.34,358.18 c -14.71,24.62 -63.91,31.42 -109.97,24.94 86.57,19.68 162.48,84.49 185.95,203.05 49.9,84.32 -13.77,86.04 -7.24,162.11 l -14.45,-48.53 c -20.9,33.1 -54.09,47.01 -107.38,38.2 33.48,-112.57 -130.7,-105.53 -130.61,3.61 5.69,80.81 81.27,117.51 136.25,116.18 104.27,-2.53 190.7,-104.77 268.07,-281.06 z m -64.39,-807.54 -310.05,524.91 c -53.3,61.55 131.71,73.21 141.6,31.15 l 187.81,-419.87 c 21.09,-37.71 -2.32,-53.87 -18.14,-23.54 l -133.1,274.84 c -7.22,14.62 -44.91,-7.4 -34.07,-25.82 l 176.93,-333.98 c 19.88,-28.64 -3.77,-42.28 -10.98,-27.69 z m 228.48,411.24 c -22.54,-16 -26.5,22.2 -10.32,37.17 l 355.39,332.03 c 35.65,36.62 51.68,-10 21.48,-35.69 z m 54.73,131.13 c -14.98,-12.22 -32.53,12.21 -6.2,36.14 l 283.22,313.13 c 19.8,25.78 44.14,-3.84 16.22,-32.28 z m -141.98,1178.95 c -4.39,37.56 116.24,65.53 106.73,15.67 l -44.26,-1056.25 c -5.17,-28.91 -28.92,-65.34 -34.08,-44.69 l 42.34,850.07 c -0.17,18.75 -28.23,9.63 -37.69,-5.68 l -35.02,-797.62 c -3.17,-72.32 -33.33,9.48 -31.06,46.21 l 33.04,992.29" /><path
         id="path110"
         style="fill:none;stroke:#26ab4d;stroke-width:39.99969864;stroke-linecap:butt;stroke-linejoin:miter;stroke-miterlimit:2.61313009;stroke-dasharray:none;stroke-opacity:1"
         d="m 2310.96,2251.71 c 49.49,33.56 93.43,68.44 122.6,115.54 -68.89,-21.44 -125.58,-61.66 -169.82,-106.74 -8.67,1.19 -17.49,2.16 -26.42,2.96 49.12,39.92 92.54,80.04 117.13,132.93 -70.89,-28.66 -124.83,-77.96 -163.79,-130.56 -8.36,0.12 -16.8,0.09 -25.3,-0.11 41.84,45.69 77.38,90.57 93.75,145.71 -64.66,-37.54 -109.41,-91.96 -140.08,-148.26 -8.34,-0.72 -16.73,-1.58 -25.15,-2.58 38.11,48.53 70.54,96.29 82.68,152.31 -61.66,-42.24 -103.08,-100.55 -129.67,-159.3 -9.09,-1.62 -18.2,-3.4 -27.33,-5.34 34.77,50.07 63.91,99.07 72.41,154.93 -59.2,-45.76 -96.91,-106.35 -119.64,-166.35 -9.74,-2.64 -19.48,-5.45 -29.2,-8.45 30.72,51.07 55.92,100.65 59.89,155.37 -55.82,-49.02 -88.59,-110.98 -106.28,-171.11 -8.62,-3.19 -17.21,-6.52 -25.76,-9.99 28.84,50.73 52.93,101.69 55.01,154.43 -54.84,-50 -86.92,-115.23 -102.56,-175.41 -6.23,-2.98 -12.44,-6.03 -18.61,-9.16 4.72,13.42 7.4,27.19 7.05,41.67 -26.28,-19.6 -43.92,-43.38 -55.23,-68.22 -9.09,-5.4 -18.06,-10.99 -26.91,-16.75 1.82,12.13 3.96,24.94 6.43,38.38 47.72,35.75 93.49,82.22 119.98,144.17 -41.25,-17.93 -75.07,-47.12 -107.12,-81.49 2.86,12.64 5.94,25.67 9.25,39.06 45.96,22.22 100.05,66.69 125.21,120.63 -41.96,-9.49 -74.05,-37.23 -111.12,-66.93 3.05,11.08 6.25,22.36 9.6,33.81 46.94,22.58 100.34,65.45 127.52,118.92 -40.4,-7.12 -72.96,-31.3 -108.93,-58.32 3.46,10.78 7.04,21.68 10.74,32.7 46.25,22.35 97.83,62.86 125.67,113.56 -38,-5.93 -69.67,-26.89 -103.81,-51.09 4.04,11.1 8.2,22.29 12.48,33.57 46.25,24.27 91.08,57.44 124.39,104.71 -35.86,-7.28 -68.46,-22.87 -100.11,-42.95 4.59,11.27 9.29,22.59 14.11,33.99 42.05,24.37 83.52,56.59 111.28,103.28 -38.58,-5.82 -70.59,-23.09 -100.67,-45.71 l -1.75,1.78 c 28.26,39.84 67.51,101.22 68.47,173.29 -47.36,-34.64 -76.94,-100.12 -90.57,-150.82 l -3.73,3.8 c -1.14,-2.12 -2.26,-4.26 -3.39,-6.42 -3.16,39.25 -10.61,76.36 -27.46,110.75 -14.32,-59.92 -11.36,-120.41 -2.99,-175.31 -4.67,-10.86 -9.33,-22.09 -13.96,-33.7 -10.09,40.53 -24.19,77.98 -48.05,110.61 -7.72,-61.32 5.14,-119.59 25.19,-171.22 -3.59,-10.04 -7.17,-20.28 -10.73,-30.73 -13.51,43.91 -26.34,83.4 -53.5,113.78 -6.61,-59.61 10.57,-125.89 33.77,-174.01 -3.12,-9.92 -6.23,-19.98 -9.34,-30.18 -9.04,24.89 -23.31,59.92 -56.01,89.77 -0.14,-66.72 18.15,-112.46 39.48,-145.78 -3.41,-11.87 -6.79,-23.91 -10.18,-36.08 -12.33,35.03 -25.18,66.48 -50,91.16 -6.55,-52.53 10.26,-110.89 33.14,-153.59 -2.25,-8.52 -4.49,-17.11 -6.72,-25.75 -7.94,21.27 -18.24,37.97 -35.62,59.97 -5.49,-52.11 8.66,-82.85 22.53,-111.64 -4.67,-18.79 -9.32,-37.81 -13.94,-57.06 -7.71,23.98 -15.69,47.95 -23.89,71.83 4.05,25.52 3.88,49.43 -1.49,71.35 -4.91,-6.22 -10.16,-14.09 -15.22,-23.6 -2,5.6 -4.01,11.19 -6.02,16.77 22.34,37.55 36.01,74.56 38.26,110.84 -16.69,-11.45 -37.65,-30.49 -57.4,-58.84 -1.93,5.14 -3.87,10.28 -5.81,15.39 31.03,38.35 50.89,78.03 55.21,119.56 -21.39,-10.41 -49.91,-31.34 -75.04,-68.08 -2.67,6.84 -5.36,13.64 -8.05,20.43 48.23,40.79 65.89,73.4 71.5,124.67 -52.75,-41.96 -71.84,-64.18 -87.59,-84.61 -3.15,7.75 -6.3,15.45 -9.45,23.1 51.53,45.64 79.75,84.85 85.45,137.27 -33.38,-26.84 -71.05,-62.29 -99.6,-103.26 -3.58,8.52 -7.15,16.97 -10.72,25.34 50.97,43.9 88.42,93.99 106.04,143.6 -31.04,-17.5 -77.91,-53.26 -122.34,-105.74 -2.89,6.64 -5.77,13.23 -8.64,19.75 55.07,49.95 95.55,99.89 114.08,149.84 -32.44,-16.9 -82.19,-53.14 -128.35,-117.7 -3.88,8.68 -7.75,17.24 -11.57,25.66 56.32,45.77 97.74,92.84 116.55,141.88 -33.09,-14.34 -84.18,-47.25 -131.11,-110.15 -4.07,8.79 -8.09,17.4 -12.06,25.84 53.67,41.11 93.19,85.36 110.7,134.46 -30.66,-11.15 -78.66,-40.22 -121.79,-102.85 l 6.16,-21.18 c -4.39,9.29 -8.72,18.33 -12.96,27.13 l 1.06,24.95 c 48.2,35.87 83.63,75.39 99.91,120.39 -30.14,-9.16 -77.18,-46.02 -119.66,-105.04 l -1.42,0.81 -3.89,7.81 2.47,8.49 -0.61,0.67 c 36.64,43.88 60.27,88.87 64.54,135.52 -24.38,-13.42 -56.47,-51.97 -81.74,-108.49 9.88,92.41 2.63,130.91 -15.27,156.82 -22.24,-33.07 -24.52,-90.63 -13.16,-140.02 -31.99,26.06 -61.8,40.98 -82.55,44.05 14.8,-30.84 38.96,-57.26 70.25,-80.32 l 0.3,-0.63 c -27.9,7.47 -55.33,10.56 -79.45,12.34 22.28,-30.18 58.62,-50.12 103.73,-64.67 l 8,-17.43 c -45.72,21.52 -87.02,28.07 -115.31,27.08 31.1,-36.46 79.83,-60.27 138.66,-78.53 3.06,-6.8 6.09,-13.56 9.09,-20.29 -53.56,22.6 -102.99,34.86 -135.36,35.83 33.66,-36.82 87.97,-61.95 153.36,-76.49 3.35,-7.61 6.66,-15.19 9.95,-22.75 -61.85,22.8 -118.23,34.15 -153.13,33.64 39.87,-35.45 99.35,-58.02 168.54,-69.31 2.9,-6.75 5.78,-13.5 8.65,-20.24 -61.68,21.36 -117.8,28.04 -152.58,27.41 40.49,-35.75 101.02,-60.71 171.33,-71.91 3.32,-7.94 6.62,-15.89 9.92,-23.85 -59.89,20.81 -114.48,26.73 -148.21,25.55 39.22,-35.37 97.98,-59.48 166.23,-69.48 l 6.62,-16.3 c -54.39,15.98 -103.98,18.67 -134.6,15.94 35.47,-30.06 88.55,-49.02 150.22,-54.79 3.26,-8.15 6.53,-16.36 9.81,-24.63 -49.64,18.96 -95.1,23.71 -122.94,22.05 32.44,-32.23 81.45,-53.42 138.28,-60.92 2.9,-7.38 5.82,-14.81 8.75,-22.32 -32.57,13.55 -61.03,18.3 -81.56,18.88 23.79,-32.28 59.76,-57.76 104.63,-78.25 l 7.99,-20.7 c -28.7,17.36 -54.72,24.76 -73.07,27.1 18.6,-31.29 50.48,-56.81 91.57,-78.3 l 1.84,-1.75 c 5.55,-14.51 11.21,-29.31 16.98,-44.43 -24.24,26.65 -48.84,41.72 -66.77,49.19 7.35,-26.7 22.98,-52.2 44.98,-76.77 l -6.96,-5.06 -3.2,-2.32 c -10.27,5.73 -20.78,11.31 -31.52,16.75 -9.11,49.45 -34.34,101.24 -87.5,141.18 -2.46,-42.13 16.45,-80.05 40.71,-119 -8.4,3.73 -16.92,7.39 -25.55,10.97 -13.23,53.67 -41.92,109.21 -95.69,152.43 0.42,-47.54 22.08,-90.31 49.14,-134.27 -10.55,3.89 -21.23,7.67 -32.06,11.34 -9.92,52.09 -34.1,106.37 -81.73,151.36 -3.36,-47.23 14.65,-91.45 37.98,-137.24 -8.59,2.63 -17.25,5.2 -25.99,7.71 -9.43,53.29 -33.62,109.2 -82.47,155.35 -3.53,-49.6 16.51,-95.87 41.52,-144.13 -7.56,1.98 -15.17,3.91 -22.83,5.82 -9.68,53.66 -31.72,107.65 -82.2,154.52 -2.71,-51.12 16.49,-95.81 42.99,-145.24 -8.67,1.96 -17.39,3.88 -26.16,5.74 -10.3,53.41 -34.48,107.67 -85.32,151.38 -2.27,-50.99 18.61,-95.69 45.43,-143.27 -10.89,2.11 -21.85,4.16 -32.87,6.13 -5.84,49.36 -24.08,99.29 -74.2,143.09 -5.93,-48 13.41,-89.63 39.87,-137.2 -21,3.46 -42.23,6.69 -63.63,9.69 l 32.28,-3.41 c -10.81,49.5 -38.02,92.84 -93.708,131.82 -0.754,-48.92 27.398,-83.03 59.368,-128.12 -10.21,1.42 -20.45,2.79 -30.73,4.11 -17.05,41.51 -44.521,82.51 -103.517,117.58 -0.836,-41.32 23.156,-74.6 57.051,-111.97 -7.633,0.86 -15.285,1.68 -22.945,2.49 -24.215,36.16 -62.274,68.04 -123.746,92.11 5.105,-35.52 31.175,-60.2 64.257,-86.39 -10,0.87 -20.019,1.71 -30.058,2.49 -24.453,28.36 -62.903,51.51 -122.91,56.21 4.183,-18.54 19.793,-37.1 54.691,-59.47 -32.57,2.12 -73.898,-3 -116.504,-15.86 27.305,-19.18 72.984,-29.94 120.399,-25.98 -25.961,-18.18 -53.098,-40.91 -58.766,-65.93 60.351,4.79 94.152,29.64 112.586,59.17 10.16,-0.77 20.269,-1.57 30.328,-2.41 -38.922,-22.73 -66.543,-49.1 -75.637,-80.07 37.266,4.49 80.867,29.35 127.789,75.32 8.668,-0.86 17.297,-1.74 25.891,-2.66 -40.094,-26.74 -70.688,-56.71 -86.168,-90.51 36.574,6.6 83.258,34.59 137.629,84.57 6.3,-0.78 12.59,-1.58 18.84,-2.4 -34.41,-26.24 -60.602,-55.35 -82.903,-95.44 36.172,6.64 81.733,37.56 132.093,88.58 8.68,-1.29 17.31,-2.62 25.89,-3.99 -51.78,-35.62 -82.97,-64.26 -98.98,-93.88 42.4,6.8 88.02,30.85 146.68,85.81 7.24,-1.3 14.43,-2.63 21.58,-3.98 -51.07,-36.8 -80.13,-69.78 -94.86,-97.65 51.47,15.6 96.25,42.79 142.36,88.12 6.37,-1.36 12.72,-2.73 19.03,-4.13 -52.71,-39.99 -84.48,-76.57 -96.03,-106.38 51.65,16.36 98.92,46.42 140.8,95.86 8.1,-2 16.14,-4.05 24.13,-6.14 -57.87,-41.29 -84.72,-70.65 -98.31,-101.43 53.63,16.69 94.76,39 139.75,90.02 6.38,-1.84 12.72,-3.7 19,-5.61 -53.14,-39.86 -77.61,-68.59 -89.3,-98.69 51.11,16.18 90.23,37.64 131.11,85.39 7.02,-2.34 13.98,-4.73 20.89,-7.16 -35.74,-22.36 -66.06,-47.19 -82.27,-83.46 55.43,9.03 91.28,37.16 121.33,69.06 6.13,-2.37 12.21,-4.77 18.24,-7.21 -29.82,-22.27 -60.45,-44.29 -78.78,-76.75 50.88,8.29 83.41,33.98 111.08,63.14 10.37,-4.55 20.58,-9.21 30.63,-13.99 -10.55,-0.09 -21.47,-1.13 -32.75,-3.29 7.07,-7.9 14.67,-14.58 22.75,-20.32 l 9.21,-28.37 c -21.64,5.67 -45.28,7.41 -71,3.54 5.41,-6.54 11.19,-12.32 17.31,-17.48 -11.84,-1.5 -23.53,-3.16 -35.09,-4.96 -22.51,8.66 -47.69,13.06 -75.84,11.07 5.64,-8.04 11.86,-15.1 18.59,-21.4 -5.2,-1.07 -10.37,-2.17 -15.52,-3.3 -24.95,24.45 -73.57,42.02 -140.78,45.79 19.42,-27.84 45.16,-42.4 80.37,-60.71 -9.73,-2.67 -19.36,-5.45 -28.91,-8.35 -31.83,30.92 -71.07,50.11 -126.23,50.32 20.18,-33.81 48.51,-49.25 83.21,-64.21 -8.45,-2.91 -16.83,-5.89 -25.15,-8.95 -35.05,31.02 -77.48,49.91 -135.08,45.84 24.09,-34.29 56.41,-47.89 95.44,-61.18 -7.89,-3.21 -15.73,-6.49 -23.52,-9.83 -40.19,27.68 -86.74,46.28 -147.19,35.75 28.76,-31.4 63.8,-44.55 105.89,-54.26 -8.94,-4.18 -17.81,-8.46 -26.64,-12.8 l 0.73,0.76 c -42.59,25.35 -92.27,38.32 -152.714,23.17 31.433,-29.66 69.004,-37.82 112.794,-43.89 -10.31,-5.43 -20.56,-10.95 -30.76,-16.58 -40.175,24.19 -83.655,33.22 -140.476,18.4 29.407,-28.91 61.754,-35 101.684,-40.38 -6.844,-3.97 -13.672,-7.99 -20.488,-12.04 -42.586,16.66 -88.805,20.13 -142.828,-0.51 29.277,-21.65 60.101,-26.97 95.328,-28.46 -6.555,-4.09 -13.102,-8.21 -19.649,-12.36 -41.105,9.41 -84.57,6.7 -132.273,-17.31 32.328,-19.17 64.781,-21.01 101.5,-18.66 -30.559,-21.04 -64.985,-54.8 -90.16,-92.92 38.254,3.13 98.183,35.87 135.675,79.33 -27.25,-50.6 -48.71,-93.7 -44.882,-147.19 52.289,47.91 76.218,100.92 85.308,156.67 7.078,4.97 14.11,9.85 21.09,14.6 -24.312,-61.83 -21.984,-98.6 -13.035,-131 33.386,56.33 47.996,90.48 53.716,157.86 7.55,4.82 15.04,9.52 22.48,14.1 -16.85,-56.96 -16.19,-91.8 -11.4,-124.57 26.59,43.85 42.17,77.27 49.8,147.36 5.97,3.41 11.91,6.75 17.83,10.01 -19.2,-72.54 -16.9,-102.06 -14.29,-128.51 29.22,43.85 46.37,77.2 56.93,150.98 6.77,3.4 13.52,6.7 20.25,9.92 -24.31,-71.97 -23.88,-101.68 -22.94,-128.33 32.28,42.11 51.61,74.38 66.93,148.22 8.46,3.61 16.9,7.07 25.33,10.41 -30.89,-68.85 -33.63,-98.02 -35.55,-124.23 36.14,40.16 58.8,71.26 81.66,141.33 9.38,3.24 18.75,6.34 28.14,9.3 -48.34,-71.39 -50.44,-102.29 -57.36,-129.7 49.31,39.08 67.2,68.37 111.39,145.27 10.13,2.65 20.31,5.17 30.52,7.56 -53.93,-59.53 -56.99,-77.47 -72.56,-108.52 56.14,35.46 79.01,47.27 131.38,120.91 5.51,1.04 11.04,2.05 16.6,3.03 -16.19,-21.95 -21.54,-36.06 -31.94,-55.1 39.6,23.11 62.95,35.52 91.68,64.59 14.11,2.01 28.4,3.89 42.88,5.67 l 6.32,-19.45 c -23.57,-5.79 -48.19,-15 -74.55,-29.82 21.25,-2.65 46.79,-3.77 70.16,-4.2 -4.62,-3.63 -9.2,-7.29 -13.75,-10.95 -47.95,-1.62 -97.11,-7.3 -154.5,-39.57 31.61,-3.95 72.7,-4.5 102.02,-4.43 -5.45,-4.77 -10.85,-9.56 -16.2,-14.37 -68.9,4.19 -128.34,-4.7 -161.69,-26.54 57.23,-7.71 87.87,-5.79 126.68,-5.93 -4.95,-4.75 -9.87,-9.51 -14.74,-14.3 -74.48,5.76 -135.17,1.42 -171.34,-22.27 58.46,-17.96 91.05,-16.56 135.46,-14.21 -5.8,-6.11 -11.54,-12.25 -17.2,-18.42 -74.7,8.58 -135.57,6.53 -171.82,-15.86 60.74,-20.92 93.55,-19.89 140.71,-19.17 -7.16,-8.31 -14.18,-16.68 -21.09,-25.1 -59.13,13.41 -112.5,12.01 -168.28,-6.36 48.15,-24.57 93.14,-24.12 143.69,-24.44 -6.4,-8.25 -12.68,-16.56 -18.87,-24.91 -81.61,13.25 -131.65,5.18 -170.87,-10.83 55.21,-26.46 99.27,-25.02 144.77,-25.63 -5.75,-8.31 -11.41,-16.66 -16.96,-25.06 -83.71,16.97 -121.7,17.39 -161.92,1.61 38.41,-32.62 80.22,-35.04 141.17,-33.98 -5.08,-8.16 -10.07,-16.36 -14.97,-24.61 -84.2,13.2 -118.21,10.5 -161.59,-6.56 41.31,-36 76.61,-34.01 139.61,-31.77 -4.72,-8.53 -9.36,-17.1 -13.9,-25.72 -66.5,11.63 -121.22,8.05 -154.99,-10.32 51.39,-33.7 106.96,-28.2 137.3,-24.37 -3.37,-6.82 -6.68,-13.67 -9.94,-20.55 -41.22,-17.96 -76.68,-48.92 -102.09,-102.88 42.8,3.35 91.32,40.64 129.94,75.06 -5.25,-50.73 -6.76,-109.89 14.88,-145.4 26.34,41.85 27.04,107.4 21.09,175.6 2.74,6.22 5.52,12.41 8.36,18.56 2.46,-45.55 10.02,-93.79 32.46,-123.11 21.35,45.02 12.65,113.09 -2.75,182.86 2.82,5.28 5.68,10.53 8.56,15.74 12.81,-78.19 29.46,-105.99 44.98,-130.67 14.17,55.78 7.83,107.42 -16.95,178.68 4.89,7.95 9.85,15.82 14.88,23.6 10.6,-84.36 27.26,-112.75 42.8,-137.83 15.27,55.09 9.51,106.63 -14.36,179.89 6.14,8.71 12.37,17.3 18.68,25.77 6.45,-93.7 22.65,-123.55 37.77,-149.77 18.22,56.93 13.82,110.07 -8.75,187.31 7.12,8.88 14.32,17.6 21.6,26.2 3.61,-86.88 15.87,-128.49 29.48,-153.62 13.2,49.73 15.14,108.26 7.79,195.84 5.73,6.21 11.49,12.35 17.28,18.41 -6.7,-91.58 1.24,-135.26 12.46,-161.72 19.14,50.12 27.19,110.36 28.74,203.03 7.23,6.94 20.16,13.77 27.43,20.46 l -20.13,-766.09 h 32.02 l 1.01,38.6 c 17.07,11.3 37.46,25.39 52.6,32.65 9.8,-4.7 79.19,-50.03 83.58,-49.47 3.94,3.72 -4.92,15.78 -18.41,30.87 17.76,11.63 40.08,27.3 56.32,35.09 20.71,-9.93 52.63,-32.96 70.76,-43.73 l 5.42,-211.28 h 32.02 c -7.83,304.13 -15.56,604.07 -23.37,907.17 5.13,-3.66 10.61,-6.83 16.52,-9.42 0.73,19.93 -4.11,39.65 -12.37,60.15 10.05,-9.34 19.99,-18.94 29.81,-28.81 -8.62,-40.57 -14.44,-83.91 15.1,-112.81 15.56,21.2 19.25,46.67 19.7,76.18 6.04,-6.66 12.04,-13.44 17.99,-20.32 -9.79,-46.86 -14.95,-95.47 10.07,-131.44 16.11,24.25 21.86,54.31 24.58,89.32 6.64,-8.48 13.23,-17.12 19.74,-25.92 -14.15,-47.03 -24.33,-96.64 -1.71,-135.53 18.86,23.93 26.93,55.13 32.49,91.93 5.95,-8.84 11.83,-17.82 17.64,-26.95 -17.26,-50.16 -32.32,-104.28 -9.68,-146.12 21.14,25.89 30.16,60.23 37.2,100.93 5.43,-9.33 10.78,-18.81 16.06,-28.43 -19.23,-50.13 -37.05,-108.39 -12.08,-156.29 22.44,25.6 34.84,57.41 41.06,100.66 4.43,-8.98 8.8,-18.05 13.11,-27.25 l -2.92,-2.98 c -12.35,-63.22 -24.86,-120.03 -12.49,-164.66 19.17,24.36 31.44,65.66 35.83,122.14 2.9,-6.75 5.76,-13.55 8.6,-20.42 -2.06,-53.16 7.88,-89.04 31.08,-112.83 19.99,27.34 18.26,60.82 6.21,105.67 36.62,-29.66 66.81,-45.11 100.19,-37.79 -12.3,30.6 -40.76,54.04 -89.54,73.52 -2.44,5.18 -4.86,10.31 -7.28,15.41 l 3.48,-4.23 c 66.13,-26.66 113.47,-39.56 153.14,-23.22 -31.38,30.9 -84.28,47.31 -168.72,52.7 -4.42,9.14 -8.84,18.16 -13.27,27.07 65.37,-18 124.11,-35.48 170.34,-24.72 -33.16,30.2 -96.29,49.24 -185.32,54.39 -3.76,7.31 -7.54,14.54 -11.34,21.71 l 0.1,-0.1 c 67.2,-17.73 120.08,-24.53 169.92,-8.68 -34.31,28.39 -97.87,43.95 -189.63,44.63 -5.37,9.5 -10.81,18.91 -16.36,28.21 63.8,-15.27 117.12,-21.12 164.6,-5.24 -34.17,27.36 -98.74,42.88 -188.04,42.95 -6.11,9.43 -12.38,18.78 -18.81,28.08 56.9,-10.78 102.76,-13.59 145.03,6.13 -30.91,25.44 -88.47,36.67 -170.34,28.83 -6.64,8.79 -13.49,17.54 -20.54,26.27 50.12,-2.73 84.85,-6.73 123.55,5.79 -29.98,24.89 -76.77,37.11 -152.39,28.36 -7.05,7.99 -14.31,15.97 -21.8,23.96 25.75,0.18 48.27,2.36 72.11,11 -24.39,18.84 -59.04,29.39 -109.74,27.33 -8.38,8.15 -17.02,16.33 -25.95,24.55 16.52,0.34 32.3,2.31 48.87,7.26 -21.17,18.41 -51.22,30.45 -94.71,33.13 -12.39,10.47 -25.29,21.03 -38.72,31.7 l 0.88,2.73 c 21.28,-8.92 41.2,-15.06 64.33,-16.69 -10.37,19.24 -27.15,36.77 -52.84,52.02 l 3.73,11.49 c 8.93,-4.29 18.23,-7.87 28.37,-10.67 -2.37,7.79 -5.66,15.53 -10,23.2 6.04,-0.72 12.07,-1.49 18.09,-2.33 10.04,-35.75 25.04,-67.09 48.82,-88.3 1.78,25.7 -0.02,52.64 -4.7,80.94 4.56,-0.88 9.11,-1.79 13.66,-2.73 9.19,-56.48 25.18,-109.14 59.95,-140.16 2.78,40.04 -3.14,83.09 -15.1,129.63 8.12,-2.13 16.19,-4.36 24.23,-6.69 8.76,-62.59 24.3,-122.66 62.45,-156.7 3.03,43.79 -4.33,91.17 -18.61,142.77 9.85,-3.4 19.62,-6.98 29.32,-10.7 2.94,-61.28 12.96,-120.24 46.65,-156.79 7.06,41.98 4.74,88.28 -3.8,139.14 8.46,-3.73 16.85,-7.58 25.15,-11.54 3.36,-71.5 13.86,-139.54 46.29,-182.32 6.71,48.51 4.94,101.77 -2.58,160.04 7.52,-4.08 14.96,-8.25 22.32,-12.52 2.8,-75.54 12.64,-148.51 46.76,-193.52 6.97,50.38 4.79,105.87 -3.47,166.78 5.73,-3.77 11.4,-7.59 17.02,-11.47 2.87,-74.97 12.82,-147.22 46.7,-191.92 6.67,48.3 4.95,101.3 -2.48,159.26 7.2,-5.67 14.29,-11.44 21.23,-17.29 -2.16,-70.35 3.07,-137.39 32.41,-179.47 9.43,43.06 12.18,89.93 10.3,140.81 5.51,-5.36 10.91,-10.78 16.21,-16.25 -4.65,-59.86 -1.81,-117 26.27,-152.79 9.67,32.33 14.16,67.2 14.94,104.74 22.9,-41.6 59.44,-92.86 98.77,-109.98 -5.55,57.06 -33.9,96.94 -68.67,124.42 l 9.2,10.2 c 37.68,-14.02 73,-20.83 106.76,-18.54 -33.84,42.05 -71.87,56.52 -136.82,67.21 -5.42,7.01 -11.12,13.97 -17.13,20.86 55.79,-9.48 106.85,-14.25 151.05,-0.73 -67.01,30.57 -130.48,39.39 -185.87,36.9 -6.19,5.87 -12.59,11.67 -19.21,17.42 54.45,-2.5 104.4,-0.61 148,16.7 -68.29,22.35 -133.09,24.69 -190.07,16.93 -8.01,5.91 -16.25,11.73 -24.71,17.46 55.06,3.65 103.91,10.09 148.62,33.46 -70.51,14.21 -134.31,9.39 -191.82,-6.12 -8.99,5.31 -18.19,10.51 -27.57,15.61 53.63,6.4 102.86,16.5 145.9,40.6 -70.34,11.54 -136.98,2.46 -195.17,-15.64 -8.83,4.16 -17.81,8.23 -26.9,12.2 56.93,7.51 108.74,20.48 154.18,45.92 -75.57,12.4 -146.17,-3.08 -207.21,-24.46 -7.1,2.66 -14.27,5.24 -21.49,7.77 49.59,12.36 98.58,29 134.63,58.27 -65.04,5.32 -132.62,-15.41 -183.83,-42.28 -9.66,2.9 -19.42,5.71 -29.27,8.39 37.96,11.2 82.29,27.99 119.46,63.62 -68.12,3.27 -127.64,-20.8 -171.7,-50.66 -12.89,2.89 -25.91,5.59 -39.04,8.09 46.12,12.62 86.73,29.12 120.17,59.43 -54.11,6.09 -105.41,-7.06 -151.55,-29.5 l -24.74,10.83 c 0.34,-2.8 0.69,-5.6 1.05,-8.39 l -22.27,16.17 c 31.78,-1.85 66.25,4.28 100.03,24.07 -31.81,14.36 -66.61,10.9 -103.84,4.42 20.25,11.64 41.42,22.7 63.32,33 22.2,-20.6 53.43,-24.71 91.55,-24.7 -10.37,17.19 -30.51,32.71 -48.15,43.71 7.33,2.98 14.74,5.86 22.19,8.65 21.67,-24.52 52.25,-35.65 94.44,-47.68 -7.95,27.11 -27.03,47.34 -49.03,63.25 6.09,1.9 12.21,3.73 18.36,5.49 22.61,-28.93 55.39,-48.01 87.86,-65.36 -0.23,28.43 -11.69,54.2 -37.79,77.97 7.06,1.53 14.13,2.98 21.23,4.3 23.4,-40.62 52.98,-71.47 88.79,-97.81 -3.56,38.07 -17.9,72.59 -46.45,104.45 10.16,1.28 20.34,2.34 30.53,3.16 18.24,-51.01 44.84,-89.02 79.05,-121.21 1.44,45.02 -8.88,85.75 -34.52,123.28 11.67,0.13 23.32,-0.08 34.95,-0.64 7.04,-56.37 21.93,-98.63 51.2,-135.07 6.14,43.6 5.47,86.66 -10.98,131.67 6.48,-0.78 12.94,-1.67 19.39,-2.69 1.91,-61.53 13.4,-106.64 41.52,-145.25 9.81,45.51 12.16,90.42 -2.95,137.59 7.24,-1.73 14.43,-3.63 21.6,-5.7 0.54,-57.21 10.64,-99.94 36.08,-136.75 10.27,40.63 14.58,80.78 5.9,122.49 5.37,-2.12 10.71,-4.35 16.01,-6.68 5.96,-51.64 19.58,-91.16 46.15,-125.52 6.08,35.58 7.61,70.79 -0.23,107.01 36.34,-51.59 73.3,-97.5 124.23,-125.62 -20.1,61.67 -55.84,112.19 -96.61,152.04 34.59,-0.13 66.63,3.66 96.02,21.15 -51.14,28.12 -99.01,25.15 -144.57,17.45 -8.19,4.44 -16.72,8.58 -25.56,12.4 45.35,16.58 86.22,32.41 115.09,65.14 -63.64,2.59 -110.84,-23.95 -154.94,-50.63 -8,2.42 -16.22,4.59 -24.58,6.59 z m -552.24,-748.49 c -21.27,-24.81 -52.23,-64.92 -48.18,-68.73 7.44,-0.32 34.48,19.68 59.32,35.49 l 6.24,2.09 3.82,-148.77 c -15.18,20.82 -53.81,56.95 -73.13,80.47 -3.47,3.64 -6.47,5.2 -10.13,0 -3.82,-4.65 -8.39,-9.8 -13.39,-15.22 -18.27,20.42 -45.02,46.37 -60.06,64.68 -3.47,3.65 -6.47,5.21 -10.13,0 -16.2,-19.72 -45.97,-48.3 -64.11,-69.29 l 3.14,120.88 c 18.2,11.77 42.18,28.83 59.36,37.08 15.09,-7.24 36.12,-21.42 53.43,-32.75 -15.97,-17.39 -27.33,-31.77 -22.95,-35.88 7.16,-0.31 69.13,42.53 83.58,49.46 9.51,-4.56 21.38,-11.88 33.19,-19.51 z m -67.22,-437.34 c 3.66,5.19 6.65,3.63 10.13,0 26.17,-31.88 87.8,-86.884 78.51,-95.622 -7.56,-0.977 -55.72,36.102 -83.58,49.472 -27.86,-13.37 -73.55,-49.91 -83.58,-49.472 -9.29,8.738 52.34,63.742 78.52,95.622 z m -149.64,44.35 2.43,93.58 c 18.46,11.77 43.85,30.03 61.83,38.65 14.74,-7.07 78.27,-50.15 83.58,-49.46 4.6,4.32 -8.19,20 -25.45,38.58 16.54,10.98 35.69,24.08 50.09,30.98 19.77,-9.48 49.77,-30.92 68.22,-42.21 l 2.92,-113.84 c -18.02,21.1 -48.67,50.44 -65.19,70.56 -3.48,3.64 -6.47,5.2 -10.13,0 -15.94,-19.4 -45.01,-47.37 -63.23,-68.27 -16.66,17.66 -36.13,37.15 -48.14,51.78 -3.47,3.64 -6.47,5.2 -10.13,0 -11.69,-14.23 -30.45,-33.08 -46.8,-50.35 z m 108.94,135.56 c -14.42,15.07 -29.61,30.64 -39.62,42.82 -3.47,3.64 -6.47,5.21 -10.13,0 -13.99,-17.04 -38.11,-40.68 -56.12,-60.34 l 3.51,135.31 c 18.45,10.85 49,33.57 69.71,43.51 14.78,-7.09 35.26,-20.85 52.38,-32.07 -27.6,-28.9 -59.23,-60.43 -52.38,-66.87 10.03,-0.43 55.72,36.1 83.58,49.47 24.15,-11.58 63.55,-40.98 78.54,-47.97 l 1.76,-68.53 c -18.25,20.81 -46.87,48.4 -62.63,67.59 -3.47,3.64 -6.47,5.2 -10.13,0 -14.61,-17.79 -40.26,-42.78 -58.47,-62.92 z m 26.6,276.67 c -18.28,20.55 -45.6,47 -60.86,65.59 -3.48,3.64 -6.47,5.2 -10.13,0 -13.36,-16.27 -35.95,-38.56 -53.64,-57.65 l 3.12,119.95 c 16.21,10.79 34.7,23.34 48.69,30.06 17.35,-8.33 42.57,-25.84 60.96,-37.64 -20.17,-21.31 -36.61,-40.2 -31.49,-45.02 10.03,-0.43 55.72,36.11 83.58,49.47 15.5,-7.43 37.26,-22.2 54.84,-33.67 l 2.37,-92.33 c -15.72,16.52 -33.16,34.17 -44.24,47.66 -3.48,3.64 -6.47,5.2 -10.14,0 -10.8,-13.16 -27.65,-30.26 -43.06,-46.42 z m -120.73,157.9 3.57,137.36 c 5.85,0.52 13.24,3.74 20.09,9.2 2.7,2.16 5.08,4.48 7.08,6.84 2.67,-3.34 8.16,-3.82 14.55,-1.86 -2.71,-1.42 -5.45,-3.2 -8.12,-5.33 -11.58,-9.26 -17.23,-21.46 -12.6,-27.25 4.63,-5.8 17.77,-2.99 29.36,6.26 11.58,9.26 17.23,21.46 12.6,27.25 -2.66,3.33 -8.16,3.82 -14.55,1.86 2.71,1.42 5.46,3.2 8.12,5.34 4.53,3.61 8.16,7.69 10.61,11.65 -0.22,-2.41 0.28,-4.53 1.57,-6.14 4.63,-5.8 17.77,-2.99 29.36,6.26 5.88,4.7 10.23,10.16 12.48,15.15 5.98,0.26 13.78,3.52 20.98,9.26 2.98,2.39 5.56,4.96 7.68,7.57 4.63,-5.79 17.77,-2.99 29.36,6.27 1.64,1.3 3.15,2.66 4.54,4.06 l 1.63,-1.27 c 0.84,-2.46 1.7,-4.93 2.56,-7.39 -1.29,-0.86 -2.57,-1.79 -3.83,-2.79 -4.54,-3.62 -8.16,-7.7 -10.61,-11.66 0.21,2.41 -0.28,4.53 -1.57,6.14 -4.63,5.8 -17.78,2.99 -29.36,-6.26 -7.13,-5.69 -12.01,-12.5 -13.63,-18.25 -6.15,1.67 -16.15,-1.62 -25.21,-8.85 -8.75,-6.99 -14.1,-15.65 -14.22,-21.97 -5.26,-1.17 -11.35,-4.16 -17.06,-8.72 -11.58,-9.26 -17.23,-21.46 -12.6,-27.25 4.62,-5.79 17.77,-2.98 29.35,6.27 8.75,6.98 14.11,15.64 14.23,21.96 5.26,1.18 11.34,4.17 17.06,8.73 7.12,5.69 12,12.5 13.62,18.25 2.82,-0.77 6.44,-0.5 10.41,0.72 -2.71,-1.42 -5.46,-3.21 -8.12,-5.33 -11.59,-9.26 -17.23,-21.46 -12.6,-27.25 4.63,-5.79 17.77,-2.99 29.35,6.27 11.59,9.25 17.23,21.45 12.61,27.24 -2.67,3.34 -8.16,3.82 -14.56,1.87 2.72,1.41 5.46,3.2 8.13,5.33 4.53,3.62 8.16,7.69 10.61,11.66 -0.22,-2.42 0.27,-4.53 1.57,-6.15 4.21,-5.28 15.5,-3.42 26.23,3.95 5.74,-14.06 12.2,-27.62 19.85,-39.84 l 4.59,-178.92 c -16.87,17.92 -36.85,37.87 -49.08,52.77 -3.48,3.64 -6.47,5.2 -10.13,0 -9.21,-11.22 -22.81,-25.3 -36.17,-39.22 -17.76,21.21 -49.74,51.69 -66.75,72.4 -3.48,3.64 -6.47,5.2 -10.13,0 -10.76,-13.1 -27.5,-30.1 -42.85,-46.19 z" /><path
         id="path112"
         style="fill:#fad606;fill-opacity:1;fill-rule:evenodd;stroke:none"
         d="m 2310.96,2251.71 c 49.49,33.56 93.43,68.44 122.6,115.54 -68.89,-21.44 -125.58,-61.66 -169.82,-106.74 -8.67,1.19 -17.49,2.16 -26.42,2.96 49.12,39.92 92.54,80.04 117.13,132.93 -70.89,-28.66 -124.83,-77.96 -163.79,-130.56 -8.36,0.12 -16.8,0.09 -25.3,-0.11 41.84,45.69 77.38,90.57 93.75,145.71 -64.66,-37.54 -109.41,-91.96 -140.08,-148.26 -8.34,-0.72 -16.73,-1.58 -25.15,-2.58 38.11,48.53 70.54,96.29 82.68,152.31 -61.66,-42.24 -103.08,-100.55 -129.67,-159.3 -9.09,-1.62 -18.2,-3.4 -27.33,-5.34 34.77,50.07 63.91,99.07 72.41,154.93 -59.2,-45.76 -96.91,-106.35 -119.64,-166.35 -9.74,-2.64 -19.48,-5.45 -29.2,-8.45 30.72,51.07 55.92,100.65 59.89,155.37 -55.82,-49.02 -88.59,-110.98 -106.28,-171.11 -8.62,-3.19 -17.21,-6.52 -25.76,-9.99 28.84,50.73 52.93,101.69 55.01,154.43 -54.84,-50 -86.92,-115.23 -102.56,-175.41 -6.23,-2.98 -12.44,-6.03 -18.61,-9.16 4.72,13.42 7.4,27.19 7.05,41.67 -26.28,-19.6 -43.92,-43.38 -55.23,-68.22 -9.09,-5.4 -18.06,-10.99 -26.91,-16.75 1.82,12.13 3.96,24.94 6.43,38.38 47.72,35.75 93.49,82.22 119.98,144.17 -41.25,-17.93 -75.07,-47.12 -107.12,-81.49 2.86,12.64 5.94,25.67 9.25,39.06 45.96,22.22 100.05,66.69 125.21,120.63 -41.96,-9.49 -74.05,-37.23 -111.12,-66.93 3.05,11.08 6.25,22.36 9.6,33.81 46.94,22.58 100.34,65.45 127.52,118.92 -40.4,-7.12 -72.96,-31.3 -108.93,-58.32 3.46,10.78 7.04,21.68 10.74,32.7 46.25,22.35 97.83,62.86 125.67,113.56 -38,-5.93 -69.67,-26.89 -103.81,-51.09 4.04,11.1 8.2,22.29 12.48,33.57 46.25,24.27 91.08,57.44 124.39,104.71 -35.86,-7.28 -68.46,-22.87 -100.11,-42.95 4.59,11.27 9.29,22.59 14.11,33.99 42.05,24.37 83.52,56.59 111.28,103.28 -38.58,-5.82 -70.59,-23.09 -100.67,-45.71 l -1.75,1.78 c 28.26,39.84 67.51,101.22 68.47,173.29 -47.36,-34.64 -76.94,-100.12 -90.57,-150.82 l -3.73,3.8 c -1.14,-2.12 -2.26,-4.26 -3.39,-6.42 -3.16,39.25 -10.61,76.36 -27.46,110.75 -14.32,-59.92 -11.36,-120.41 -2.99,-175.31 -4.67,-10.86 -9.33,-22.09 -13.96,-33.7 -10.09,40.53 -24.19,77.98 -48.05,110.61 -7.72,-61.32 5.14,-119.59 25.19,-171.22 -3.59,-10.04 -7.17,-20.28 -10.73,-30.73 -13.51,43.91 -26.34,83.4 -53.5,113.78 -6.61,-59.61 10.57,-125.89 33.77,-174.01 -3.12,-9.92 -6.23,-19.98 -9.34,-30.18 -9.04,24.89 -23.31,59.92 -56.01,89.77 -0.14,-66.72 18.15,-112.46 39.48,-145.78 -3.41,-11.87 -6.79,-23.91 -10.18,-36.08 -12.33,35.03 -25.18,66.48 -50,91.16 -6.55,-52.53 10.26,-110.89 33.14,-153.59 -2.25,-8.52 -4.49,-17.11 -6.72,-25.75 -7.94,21.27 -18.24,37.97 -35.62,59.97 -5.49,-52.11 8.66,-82.85 22.53,-111.64 -4.67,-18.79 -9.32,-37.81 -13.94,-57.06 -7.71,23.98 -15.69,47.95 -23.89,71.83 4.05,25.52 3.88,49.43 -1.49,71.35 -4.91,-6.22 -10.16,-14.09 -15.22,-23.6 -2,5.6 -4.01,11.19 -6.02,16.77 22.34,37.55 36.01,74.56 38.26,110.84 -16.69,-11.45 -37.65,-30.49 -57.4,-58.84 -1.93,5.14 -3.87,10.28 -5.81,15.39 31.03,38.35 50.89,78.03 55.21,119.56 -21.39,-10.41 -49.91,-31.34 -75.04,-68.08 -2.67,6.84 -5.36,13.64 -8.05,20.43 48.23,40.79 65.89,73.4 71.5,124.67 -52.75,-41.96 -71.84,-64.18 -87.59,-84.61 -3.15,7.75 -6.3,15.45 -9.45,23.1 51.53,45.64 79.75,84.85 85.45,137.27 -33.38,-26.84 -71.05,-62.29 -99.6,-103.26 -3.58,8.52 -7.15,16.97 -10.72,25.34 50.97,43.9 88.42,93.99 106.04,143.6 -31.04,-17.5 -77.91,-53.26 -122.34,-105.74 -2.89,6.64 -5.77,13.23 -8.64,19.75 55.07,49.95 95.55,99.89 114.08,149.84 -32.44,-16.9 -82.19,-53.14 -128.35,-117.7 -3.88,8.68 -7.75,17.24 -11.57,25.66 56.32,45.77 97.74,92.84 116.55,141.88 -33.09,-14.34 -84.18,-47.25 -131.11,-110.15 -4.07,8.79 -8.09,17.4 -12.06,25.84 53.67,41.11 93.19,85.36 110.7,134.46 -30.66,-11.15 -78.66,-40.22 -121.79,-102.85 l 6.16,-21.18 c -4.39,9.29 -8.72,18.33 -12.96,27.13 l 1.06,24.95 c 48.2,35.87 83.63,75.39 99.91,120.39 -30.14,-9.16 -77.18,-46.02 -119.66,-105.04 l -1.42,0.81 -3.89,7.81 2.47,8.49 -0.61,0.67 c 36.64,43.88 60.27,88.87 64.54,135.52 -24.38,-13.42 -56.47,-51.97 -81.74,-108.49 9.88,92.41 2.63,130.91 -15.27,156.82 -22.24,-33.07 -24.52,-90.63 -13.16,-140.02 -31.99,26.06 -61.8,40.98 -82.55,44.05 14.8,-30.84 38.96,-57.26 70.25,-80.32 l 0.3,-0.63 c -27.9,7.47 -55.33,10.56 -79.45,12.34 22.28,-30.18 58.62,-50.12 103.73,-64.67 l 8,-17.43 c -45.72,21.52 -87.02,28.07 -115.31,27.08 31.1,-36.46 79.83,-60.27 138.66,-78.53 3.06,-6.8 6.09,-13.56 9.09,-20.29 -53.56,22.6 -102.99,34.86 -135.36,35.83 33.66,-36.82 87.97,-61.95 153.36,-76.49 3.35,-7.61 6.66,-15.19 9.95,-22.75 -61.85,22.8 -118.23,34.15 -153.13,33.64 39.87,-35.45 99.35,-58.02 168.54,-69.31 2.9,-6.75 5.78,-13.5 8.65,-20.24 -61.68,21.36 -117.8,28.04 -152.58,27.41 40.49,-35.75 101.02,-60.71 171.33,-71.91 3.32,-7.94 6.62,-15.89 9.92,-23.85 -59.89,20.81 -114.48,26.73 -148.21,25.55 39.22,-35.37 97.98,-59.48 166.23,-69.48 l 6.62,-16.3 c -54.39,15.98 -103.98,18.67 -134.6,15.94 35.47,-30.06 88.55,-49.02 150.22,-54.79 3.26,-8.15 6.53,-16.36 9.81,-24.63 -49.64,18.96 -95.1,23.71 -122.94,22.05 32.44,-32.23 81.45,-53.42 138.28,-60.92 2.9,-7.38 5.82,-14.81 8.75,-22.32 -32.57,13.55 -61.03,18.3 -81.56,18.88 23.79,-32.28 59.76,-57.76 104.63,-78.25 l 7.99,-20.7 c -28.7,17.36 -54.72,24.76 -73.07,27.1 18.6,-31.29 50.48,-56.81 91.57,-78.3 l 1.84,-1.75 c 5.55,-14.51 11.21,-29.31 16.98,-44.43 -24.24,26.65 -48.84,41.72 -66.77,49.19 7.35,-26.7 22.98,-52.2 44.98,-76.77 l -6.96,-5.06 -3.2,-2.32 c -10.27,5.73 -20.78,11.31 -31.52,16.75 -9.11,49.45 -34.34,101.24 -87.5,141.18 -2.46,-42.13 16.45,-80.05 40.71,-119 -8.4,3.73 -16.92,7.39 -25.55,10.97 -13.23,53.67 -41.92,109.21 -95.69,152.43 0.42,-47.54 22.08,-90.31 49.14,-134.27 -10.55,3.89 -21.23,7.67 -32.06,11.34 -9.92,52.09 -34.1,106.37 -81.73,151.36 -3.36,-47.23 14.65,-91.45 37.98,-137.24 -8.59,2.63 -17.25,5.2 -25.99,7.71 -9.43,53.29 -33.62,109.2 -82.47,155.35 -3.53,-49.6 16.51,-95.87 41.52,-144.13 -7.56,1.98 -15.17,3.91 -22.83,5.82 -9.68,53.66 -31.72,107.65 -82.2,154.52 -2.71,-51.12 16.49,-95.81 42.99,-145.24 -8.67,1.96 -17.39,3.88 -26.16,5.74 -10.3,53.41 -34.48,107.67 -85.32,151.38 -2.27,-50.99 18.61,-95.69 45.43,-143.27 -10.89,2.11 -21.85,4.16 -32.87,6.13 -5.84,49.36 -24.08,99.29 -74.2,143.09 -5.93,-48 13.41,-89.63 39.87,-137.2 -21,3.46 -42.23,6.69 -63.63,9.69 l 32.28,-3.41 c -10.81,49.5 -38.02,92.84 -93.708,131.82 -0.754,-48.92 27.398,-83.03 59.368,-128.12 -10.21,1.42 -20.45,2.79 -30.73,4.11 -17.05,41.51 -44.521,82.51 -103.517,117.58 -0.836,-41.32 23.156,-74.6 57.051,-111.97 -7.633,0.86 -15.285,1.68 -22.945,2.49 -24.215,36.16 -62.274,68.04 -123.746,92.11 5.105,-35.52 31.175,-60.2 64.257,-86.39 -10,0.87 -20.019,1.71 -30.058,2.49 -24.453,28.36 -62.903,51.51 -122.91,56.21 4.183,-18.54 19.793,-37.1 54.691,-59.47 -32.57,2.12 -73.898,-3 -116.504,-15.86 27.305,-19.18 72.984,-29.94 120.399,-25.98 -25.961,-18.18 -53.098,-40.91 -58.766,-65.93 60.351,4.79 94.152,29.64 112.586,59.17 10.16,-0.77 20.269,-1.57 30.328,-2.41 -38.922,-22.73 -66.543,-49.1 -75.637,-80.07 37.266,4.49 80.867,29.35 127.789,75.32 8.668,-0.86 17.297,-1.74 25.891,-2.66 -40.094,-26.74 -70.688,-56.71 -86.168,-90.51 36.574,6.6 83.258,34.59 137.629,84.57 6.3,-0.78 12.59,-1.58 18.84,-2.4 -34.41,-26.24 -60.602,-55.35 -82.903,-95.44 36.172,6.64 81.733,37.56 132.093,88.58 8.68,-1.29 17.31,-2.62 25.89,-3.99 -51.78,-35.62 -82.97,-64.26 -98.98,-93.88 42.4,6.8 88.02,30.85 146.68,85.81 7.24,-1.3 14.43,-2.63 21.58,-3.98 -51.07,-36.8 -80.13,-69.78 -94.86,-97.65 51.47,15.6 96.25,42.79 142.36,88.12 6.37,-1.36 12.72,-2.73 19.03,-4.13 -52.71,-39.99 -84.48,-76.57 -96.03,-106.38 51.65,16.36 98.92,46.42 140.8,95.86 8.1,-2 16.14,-4.05 24.13,-6.14 -57.87,-41.29 -84.72,-70.65 -98.31,-101.43 53.63,16.69 94.76,39 139.75,90.02 6.38,-1.84 12.72,-3.7 19,-5.61 -53.14,-39.86 -77.61,-68.59 -89.3,-98.69 51.11,16.18 90.23,37.64 131.11,85.39 7.02,-2.34 13.98,-4.73 20.89,-7.16 -35.74,-22.36 -66.06,-47.19 -82.27,-83.46 55.43,9.03 91.28,37.16 121.33,69.06 6.13,-2.37 12.21,-4.77 18.24,-7.21 -29.82,-22.27 -60.45,-44.29 -78.78,-76.75 50.88,8.29 83.41,33.98 111.08,63.14 10.37,-4.55 20.58,-9.21 30.63,-13.99 -10.55,-0.09 -21.47,-1.13 -32.75,-3.29 7.07,-7.9 14.67,-14.58 22.75,-20.32 l 9.21,-28.37 c -21.64,5.67 -45.28,7.41 -71,3.54 5.41,-6.54 11.19,-12.32 17.31,-17.48 -11.84,-1.5 -23.53,-3.16 -35.09,-4.96 -22.51,8.66 -47.69,13.06 -75.84,11.07 5.64,-8.04 11.86,-15.1 18.59,-21.4 -5.2,-1.07 -10.37,-2.17 -15.52,-3.3 -24.95,24.45 -73.57,42.02 -140.78,45.79 19.42,-27.84 45.16,-42.4 80.37,-60.71 -9.73,-2.67 -19.36,-5.45 -28.91,-8.35 -31.83,30.92 -71.07,50.11 -126.23,50.32 20.18,-33.81 48.51,-49.25 83.21,-64.21 -8.45,-2.91 -16.83,-5.89 -25.15,-8.95 -35.05,31.02 -77.48,49.91 -135.08,45.84 24.09,-34.29 56.41,-47.89 95.44,-61.18 -7.89,-3.21 -15.73,-6.49 -23.52,-9.83 -40.19,27.68 -86.74,46.28 -147.19,35.75 28.76,-31.4 63.8,-44.55 105.89,-54.26 -8.94,-4.18 -17.81,-8.46 -26.64,-12.8 l 0.73,0.76 c -42.59,25.35 -92.27,38.32 -152.714,23.17 31.433,-29.66 69.004,-37.82 112.794,-43.89 -10.31,-5.43 -20.56,-10.95 -30.76,-16.58 -40.175,24.19 -83.655,33.22 -140.476,18.4 29.407,-28.91 61.754,-35 101.684,-40.38 -6.844,-3.97 -13.672,-7.99 -20.488,-12.04 -42.586,16.66 -88.805,20.13 -142.828,-0.51 29.277,-21.65 60.101,-26.97 95.328,-28.46 -6.555,-4.09 -13.102,-8.21 -19.649,-12.36 -41.105,9.41 -84.57,6.7 -132.273,-17.31 32.328,-19.17 64.781,-21.01 101.5,-18.66 -30.559,-21.04 -64.985,-54.8 -90.16,-92.92 38.254,3.13 98.183,35.87 135.675,79.33 -27.25,-50.6 -48.71,-93.7 -44.882,-147.19 52.289,47.91 76.218,100.92 85.308,156.67 7.078,4.97 14.11,9.85 21.09,14.6 -24.312,-61.83 -21.984,-98.6 -13.035,-131 33.386,56.33 47.996,90.48 53.716,157.86 7.55,4.82 15.04,9.52 22.48,14.1 -16.85,-56.96 -16.19,-91.8 -11.4,-124.57 26.59,43.85 42.17,77.27 49.8,147.36 5.97,3.41 11.91,6.75 17.83,10.01 -19.2,-72.54 -16.9,-102.06 -14.29,-128.51 29.22,43.85 46.37,77.2 56.93,150.98 6.77,3.4 13.52,6.7 20.25,9.92 -24.31,-71.97 -23.88,-101.68 -22.94,-128.33 32.28,42.11 51.61,74.38 66.93,148.22 8.46,3.61 16.9,7.07 25.33,10.41 -30.89,-68.85 -33.63,-98.02 -35.55,-124.23 36.14,40.16 58.8,71.26 81.66,141.33 9.38,3.24 18.75,6.34 28.14,9.3 -48.34,-71.39 -50.44,-102.29 -57.36,-129.7 49.31,39.08 67.2,68.37 111.39,145.27 10.13,2.65 20.31,5.17 30.52,7.56 -53.93,-59.53 -56.99,-77.47 -72.56,-108.52 56.14,35.46 79.01,47.27 131.38,120.91 5.51,1.04 11.04,2.05 16.6,3.03 -16.19,-21.95 -21.54,-36.06 -31.94,-55.1 39.6,23.11 62.95,35.52 91.68,64.59 14.11,2.01 28.4,3.89 42.88,5.67 l 6.32,-19.45 c -23.57,-5.79 -48.19,-15 -74.55,-29.82 21.25,-2.65 46.79,-3.77 70.16,-4.2 -4.62,-3.63 -9.2,-7.29 -13.75,-10.95 -47.95,-1.62 -97.11,-7.3 -154.5,-39.57 31.61,-3.95 72.7,-4.5 102.02,-4.43 -5.45,-4.77 -10.85,-9.56 -16.2,-14.37 -68.9,4.19 -128.34,-4.7 -161.69,-26.54 57.23,-7.71 87.87,-5.79 126.68,-5.93 -4.95,-4.75 -9.87,-9.51 -14.74,-14.3 -74.48,5.76 -135.17,1.42 -171.34,-22.27 58.46,-17.96 91.05,-16.56 135.46,-14.21 -5.8,-6.11 -11.54,-12.25 -17.2,-18.42 -74.7,8.58 -135.57,6.53 -171.82,-15.86 60.74,-20.92 93.55,-19.89 140.71,-19.17 -7.16,-8.31 -14.18,-16.68 -21.09,-25.1 -59.13,13.41 -112.5,12.01 -168.28,-6.36 48.15,-24.57 93.14,-24.12 143.69,-24.44 -6.4,-8.25 -12.68,-16.56 -18.87,-24.91 -81.61,13.25 -131.65,5.18 -170.87,-10.83 55.21,-26.46 99.27,-25.02 144.77,-25.63 -5.75,-8.31 -11.41,-16.66 -16.96,-25.06 -83.71,16.97 -121.7,17.39 -161.92,1.61 38.41,-32.62 80.22,-35.04 141.17,-33.98 -5.08,-8.16 -10.07,-16.36 -14.97,-24.61 -84.2,13.2 -118.21,10.5 -161.59,-6.56 41.31,-36 76.61,-34.01 139.61,-31.77 -4.72,-8.53 -9.36,-17.1 -13.9,-25.72 -66.5,11.63 -121.22,8.05 -154.99,-10.32 51.39,-33.7 106.96,-28.2 137.3,-24.37 -3.37,-6.82 -6.68,-13.67 -9.94,-20.55 -41.22,-17.96 -76.68,-48.92 -102.09,-102.88 42.8,3.35 91.32,40.64 129.94,75.06 -5.25,-50.73 -6.76,-109.89 14.88,-145.4 26.34,41.85 27.04,107.4 21.09,175.6 2.74,6.22 5.52,12.41 8.36,18.56 2.46,-45.55 10.02,-93.79 32.46,-123.11 21.35,45.02 12.65,113.09 -2.75,182.86 2.82,5.28 5.68,10.53 8.56,15.74 12.81,-78.19 29.46,-105.99 44.98,-130.67 14.17,55.78 7.83,107.42 -16.95,178.68 4.89,7.95 9.85,15.82 14.88,23.6 10.6,-84.36 27.26,-112.75 42.8,-137.83 15.27,55.09 9.51,106.63 -14.36,179.89 6.14,8.71 12.37,17.3 18.68,25.77 6.45,-93.7 22.65,-123.55 37.77,-149.77 18.22,56.93 13.82,110.07 -8.75,187.31 7.12,8.88 14.32,17.6 21.6,26.2 3.61,-86.88 15.87,-128.49 29.48,-153.62 13.2,49.73 15.14,108.26 7.79,195.84 5.73,6.21 11.49,12.35 17.28,18.41 -6.7,-91.58 1.24,-135.26 12.46,-161.72 19.14,50.12 27.19,110.36 28.74,203.03 7.23,6.94 20.16,13.77 27.43,20.46 l -20.13,-766.09 h 32.02 l 1.01,38.6 c 17.07,11.3 37.46,25.39 52.6,32.65 9.8,-4.7 79.19,-50.03 83.58,-49.47 3.94,3.72 -4.92,15.78 -18.41,30.87 17.76,11.63 40.08,27.3 56.32,35.09 20.71,-9.93 52.63,-32.96 70.76,-43.73 l 5.42,-211.28 h 32.02 c -7.83,304.13 -15.56,604.07 -23.37,907.17 5.13,-3.66 10.61,-6.83 16.52,-9.42 0.73,19.93 -4.11,39.65 -12.37,60.15 10.05,-9.34 19.99,-18.94 29.81,-28.81 -8.62,-40.57 -14.44,-83.91 15.1,-112.81 15.56,21.2 19.25,46.67 19.7,76.18 6.04,-6.66 12.04,-13.44 17.99,-20.32 -9.79,-46.86 -14.95,-95.47 10.07,-131.44 16.11,24.25 21.86,54.31 24.58,89.32 6.64,-8.48 13.23,-17.12 19.74,-25.92 -14.15,-47.03 -24.33,-96.64 -1.71,-135.53 18.86,23.93 26.93,55.13 32.49,91.93 5.95,-8.84 11.83,-17.82 17.64,-26.95 -17.26,-50.16 -32.32,-104.28 -9.68,-146.12 21.14,25.89 30.16,60.23 37.2,100.93 5.43,-9.33 10.78,-18.81 16.06,-28.43 -19.23,-50.13 -37.05,-108.39 -12.08,-156.29 22.44,25.6 34.84,57.41 41.06,100.66 4.43,-8.98 8.8,-18.05 13.11,-27.25 l -2.92,-2.98 c -12.35,-63.22 -24.86,-120.03 -12.49,-164.66 19.17,24.36 31.44,65.66 35.83,122.14 2.9,-6.75 5.76,-13.55 8.6,-20.42 -2.06,-53.16 7.88,-89.04 31.08,-112.83 19.99,27.34 18.26,60.82 6.21,105.67 36.62,-29.66 66.81,-45.11 100.19,-37.79 -12.3,30.6 -40.76,54.04 -89.54,73.52 -2.44,5.18 -4.86,10.31 -7.28,15.41 l 3.48,-4.23 c 66.13,-26.66 113.47,-39.56 153.14,-23.22 -31.38,30.9 -84.28,47.31 -168.72,52.7 -4.42,9.14 -8.84,18.16 -13.27,27.07 65.37,-18 124.11,-35.48 170.34,-24.72 -33.16,30.2 -96.29,49.24 -185.32,54.39 -3.76,7.31 -7.54,14.54 -11.34,21.71 l 0.1,-0.1 c 67.2,-17.73 120.08,-24.53 169.92,-8.68 -34.31,28.39 -97.87,43.95 -189.63,44.63 -5.37,9.5 -10.81,18.91 -16.36,28.21 63.8,-15.27 117.12,-21.12 164.6,-5.24 -34.17,27.36 -98.74,42.88 -188.04,42.95 -6.11,9.43 -12.38,18.78 -18.81,28.08 56.9,-10.78 102.76,-13.59 145.03,6.13 -30.91,25.44 -88.47,36.67 -170.34,28.83 -6.64,8.79 -13.49,17.54 -20.54,26.27 50.12,-2.73 84.85,-6.73 123.55,5.79 -29.98,24.89 -76.77,37.11 -152.39,28.36 -7.05,7.99 -14.31,15.97 -21.8,23.96 25.75,0.18 48.27,2.36 72.11,11 -24.39,18.84 -59.04,29.39 -109.74,27.33 -8.38,8.15 -17.02,16.33 -25.95,24.55 16.52,0.34 32.3,2.31 48.87,7.26 -21.17,18.41 -51.22,30.45 -94.71,33.13 -12.39,10.47 -25.29,21.03 -38.72,31.7 l 0.88,2.73 c 21.28,-8.92 41.2,-15.06 64.33,-16.69 -10.37,19.24 -27.15,36.77 -52.84,52.02 l 3.73,11.49 c 8.93,-4.29 18.23,-7.87 28.37,-10.67 -2.37,7.79 -5.66,15.53 -10,23.2 6.04,-0.72 12.07,-1.49 18.09,-2.33 10.04,-35.75 25.04,-67.09 48.82,-88.3 1.78,25.7 -0.02,52.64 -4.7,80.94 4.56,-0.88 9.11,-1.79 13.66,-2.73 9.19,-56.48 25.18,-109.14 59.95,-140.16 2.78,40.04 -3.14,83.09 -15.1,129.63 8.12,-2.13 16.19,-4.36 24.23,-6.69 8.76,-62.59 24.3,-122.66 62.45,-156.7 3.03,43.79 -4.33,91.17 -18.61,142.77 9.85,-3.4 19.62,-6.98 29.32,-10.7 2.94,-61.28 12.96,-120.24 46.65,-156.79 7.06,41.98 4.74,88.28 -3.8,139.14 8.46,-3.73 16.85,-7.58 25.15,-11.54 3.36,-71.5 13.86,-139.54 46.29,-182.32 6.71,48.51 4.94,101.77 -2.58,160.04 7.52,-4.08 14.96,-8.25 22.32,-12.52 2.8,-75.54 12.64,-148.51 46.76,-193.52 6.97,50.38 4.79,105.87 -3.47,166.78 5.73,-3.77 11.4,-7.59 17.02,-11.47 2.87,-74.97 12.82,-147.22 46.7,-191.92 6.67,48.3 4.95,101.3 -2.48,159.26 7.2,-5.67 14.29,-11.44 21.23,-17.29 -2.16,-70.35 3.07,-137.39 32.41,-179.47 9.43,43.06 12.18,89.93 10.3,140.81 5.51,-5.36 10.91,-10.78 16.21,-16.25 -4.65,-59.86 -1.81,-117 26.27,-152.79 9.67,32.33 14.16,67.2 14.94,104.74 22.9,-41.6 59.44,-92.86 98.77,-109.98 -5.55,57.06 -33.9,96.94 -68.67,124.42 l 9.2,10.2 c 37.68,-14.02 73,-20.83 106.76,-18.54 -33.84,42.05 -71.87,56.52 -136.82,67.21 -5.42,7.01 -11.12,13.97 -17.13,20.86 55.79,-9.48 106.85,-14.25 151.05,-0.73 -67.01,30.57 -130.48,39.39 -185.87,36.9 -6.19,5.87 -12.59,11.67 -19.21,17.42 54.45,-2.5 104.4,-0.61 148,16.7 -68.29,22.35 -133.09,24.69 -190.07,16.93 -8.01,5.91 -16.25,11.73 -24.71,17.46 55.06,3.65 103.91,10.09 148.62,33.46 -70.51,14.21 -134.31,9.39 -191.82,-6.12 -8.99,5.31 -18.19,10.51 -27.57,15.61 53.63,6.4 102.86,16.5 145.9,40.6 -70.34,11.54 -136.98,2.46 -195.17,-15.64 -8.83,4.16 -17.81,8.23 -26.9,12.2 56.93,7.51 108.74,20.48 154.18,45.92 -75.57,12.4 -146.17,-3.08 -207.21,-24.46 -7.1,2.66 -14.27,5.24 -21.49,7.77 49.59,12.36 98.58,29 134.63,58.27 -65.04,5.32 -132.62,-15.41 -183.83,-42.28 -9.66,2.9 -19.42,5.71 -29.27,8.39 37.96,11.2 82.29,27.99 119.46,63.62 -68.12,3.27 -127.64,-20.8 -171.7,-50.66 -12.89,2.89 -25.91,5.59 -39.04,8.09 46.12,12.62 86.73,29.12 120.17,59.43 -54.11,6.09 -105.41,-7.06 -151.55,-29.5 l -24.74,10.83 c 0.34,-2.8 0.69,-5.6 1.05,-8.39 l -22.27,16.17 c 31.78,-1.85 66.25,4.28 100.03,24.07 -31.81,14.36 -66.61,10.9 -103.84,4.42 20.25,11.64 41.42,22.7 63.32,33 22.2,-20.6 53.43,-24.71 91.55,-24.7 -10.37,17.19 -30.51,32.71 -48.15,43.71 7.33,2.98 14.74,5.86 22.19,8.65 21.67,-24.52 52.25,-35.65 94.44,-47.68 -7.95,27.11 -27.03,47.34 -49.03,63.25 6.09,1.9 12.21,3.73 18.36,5.49 22.61,-28.93 55.39,-48.01 87.86,-65.36 -0.23,28.43 -11.69,54.2 -37.79,77.97 7.06,1.53 14.13,2.98 21.23,4.3 23.4,-40.62 52.98,-71.47 88.79,-97.81 -3.56,38.07 -17.9,72.59 -46.45,104.45 10.16,1.28 20.34,2.34 30.53,3.16 18.24,-51.01 44.84,-89.02 79.05,-121.21 1.44,45.02 -8.88,85.75 -34.52,123.28 11.67,0.13 23.32,-0.08 34.95,-0.64 7.04,-56.37 21.93,-98.63 51.2,-135.07 6.14,43.6 5.47,86.66 -10.98,131.67 6.48,-0.78 12.94,-1.67 19.39,-2.69 1.91,-61.53 13.4,-106.64 41.52,-145.25 9.81,45.51 12.16,90.42 -2.95,137.59 7.24,-1.73 14.43,-3.63 21.6,-5.7 0.54,-57.21 10.64,-99.94 36.08,-136.75 10.27,40.63 14.58,80.78 5.9,122.49 5.37,-2.12 10.71,-4.35 16.01,-6.68 5.96,-51.64 19.58,-91.16 46.15,-125.52 6.08,35.58 7.61,70.79 -0.23,107.01 36.34,-51.59 73.3,-97.5 124.23,-125.62 -20.1,61.67 -55.84,112.19 -96.61,152.04 34.59,-0.13 66.63,3.66 96.02,21.15 -51.14,28.12 -99.01,25.15 -144.57,17.45 -8.19,4.44 -16.72,8.58 -25.56,12.4 45.35,16.58 86.22,32.41 115.09,65.14 -63.64,2.59 -110.84,-23.95 -154.94,-50.63 -8,2.42 -16.22,4.59 -24.58,6.59 z m -552.24,-748.49 c -21.27,-24.81 -52.23,-64.92 -48.18,-68.73 7.44,-0.32 34.48,19.68 59.32,35.49 l 6.24,2.09 3.82,-148.77 c -15.18,20.82 -53.81,56.95 -73.13,80.47 -3.47,3.64 -6.47,5.2 -10.13,0 -3.82,-4.65 -8.39,-9.8 -13.39,-15.22 -18.27,20.42 -45.02,46.37 -60.06,64.68 -3.47,3.65 -6.47,5.21 -10.13,0 -16.2,-19.72 -45.97,-48.3 -64.11,-69.29 l 3.14,120.88 c 18.2,11.77 42.18,28.83 59.36,37.08 15.09,-7.24 36.12,-21.42 53.43,-32.75 -15.97,-17.39 -27.33,-31.77 -22.95,-35.88 7.16,-0.31 69.13,42.53 83.58,49.46 9.51,-4.56 21.38,-11.88 33.19,-19.51 z m -67.22,-437.34 c 3.66,5.19 6.65,3.63 10.13,0 26.17,-31.88 87.8,-86.884 78.51,-95.622 -7.56,-0.977 -55.72,36.102 -83.58,49.472 -27.86,-13.37 -73.55,-49.91 -83.58,-49.472 -9.29,8.738 52.34,63.742 78.52,95.622 z m -149.64,44.35 2.43,93.58 c 18.46,11.77 43.85,30.03 61.83,38.65 14.74,-7.07 78.27,-50.15 83.58,-49.46 4.6,4.32 -8.19,20 -25.45,38.58 16.54,10.98 35.69,24.08 50.09,30.98 19.77,-9.48 49.77,-30.92 68.22,-42.21 l 2.92,-113.84 c -18.02,21.1 -48.67,50.44 -65.19,70.56 -3.48,3.64 -6.47,5.2 -10.13,0 -15.94,-19.4 -45.01,-47.37 -63.23,-68.27 -16.66,17.66 -36.13,37.15 -48.14,51.78 -3.47,3.64 -6.47,5.2 -10.13,0 -11.69,-14.23 -30.45,-33.08 -46.8,-50.35 z m 108.94,135.56 c -14.42,15.07 -29.61,30.64 -39.62,42.82 -3.47,3.64 -6.47,5.21 -10.13,0 -13.99,-17.04 -38.11,-40.68 -56.12,-60.34 l 3.51,135.31 c 18.45,10.85 49,33.57 69.71,43.51 14.78,-7.09 35.26,-20.85 52.38,-32.07 -27.6,-28.9 -59.23,-60.43 -52.38,-66.87 10.03,-0.43 55.72,36.1 83.58,49.47 24.15,-11.58 63.55,-40.98 78.54,-47.97 l 1.76,-68.53 c -18.25,20.81 -46.87,48.4 -62.63,67.59 -3.47,3.64 -6.47,5.2 -10.13,0 -14.61,-17.79 -40.26,-42.78 -58.47,-62.92 z m 26.6,276.67 c -18.28,20.55 -45.6,47 -60.86,65.59 -3.48,3.64 -6.47,5.2 -10.13,0 -13.36,-16.27 -35.95,-38.56 -53.64,-57.65 l 3.12,119.95 c 16.21,10.79 34.7,23.34 48.69,30.06 17.35,-8.33 42.57,-25.84 60.96,-37.64 -20.17,-21.31 -36.61,-40.2 -31.49,-45.02 10.03,-0.43 55.72,36.11 83.58,49.47 15.5,-7.43 37.26,-22.2 54.84,-33.67 l 2.37,-92.33 c -15.72,16.52 -33.16,34.17 -44.24,47.66 -3.48,3.64 -6.47,5.2 -10.14,0 -10.8,-13.16 -27.65,-30.26 -43.06,-46.42 z m -120.73,157.9 3.57,137.36 c 5.85,0.52 13.24,3.74 20.09,9.2 2.7,2.16 5.08,4.48 7.08,6.84 2.67,-3.34 8.16,-3.82 14.55,-1.86 -2.71,-1.42 -5.45,-3.2 -8.12,-5.33 -11.58,-9.26 -17.23,-21.46 -12.6,-27.25 4.63,-5.8 17.77,-2.99 29.36,6.26 11.58,9.26 17.23,21.46 12.6,27.25 -2.66,3.33 -8.16,3.82 -14.55,1.86 2.71,1.42 5.46,3.2 8.12,5.34 4.53,3.61 8.16,7.69 10.61,11.65 -0.22,-2.41 0.28,-4.53 1.57,-6.14 4.63,-5.8 17.77,-2.99 29.36,6.26 5.88,4.7 10.23,10.16 12.48,15.15 5.98,0.26 13.78,3.52 20.98,9.26 2.98,2.39 5.56,4.96 7.68,7.57 4.63,-5.79 17.77,-2.99 29.36,6.27 1.64,1.3 3.15,2.66 4.54,4.06 l 1.63,-1.27 c 0.84,-2.46 1.7,-4.93 2.56,-7.39 -1.29,-0.86 -2.57,-1.79 -3.83,-2.79 -4.54,-3.62 -8.16,-7.7 -10.61,-11.66 0.21,2.41 -0.28,4.53 -1.57,6.14 -4.63,5.8 -17.78,2.99 -29.36,-6.26 -7.13,-5.69 -12.01,-12.5 -13.63,-18.25 -6.15,1.67 -16.15,-1.62 -25.21,-8.85 -8.75,-6.99 -14.1,-15.65 -14.22,-21.97 -5.26,-1.17 -11.35,-4.16 -17.06,-8.72 -11.58,-9.26 -17.23,-21.46 -12.6,-27.25 4.62,-5.79 17.77,-2.98 29.35,6.27 8.75,6.98 14.11,15.64 14.23,21.96 5.26,1.18 11.34,4.17 17.06,8.73 7.12,5.69 12,12.5 13.62,18.25 2.82,-0.77 6.44,-0.5 10.41,0.72 -2.71,-1.42 -5.46,-3.21 -8.12,-5.33 -11.59,-9.26 -17.23,-21.46 -12.6,-27.25 4.63,-5.79 17.77,-2.99 29.35,6.27 11.59,9.25 17.23,21.45 12.61,27.24 -2.67,3.34 -8.16,3.82 -14.56,1.87 2.72,1.41 5.46,3.2 8.13,5.33 4.53,3.62 8.16,7.69 10.61,11.66 -0.22,-2.42 0.27,-4.53 1.57,-6.15 4.21,-5.28 15.5,-3.42 26.23,3.95 5.74,-14.06 12.2,-27.62 19.85,-39.84 l 4.59,-178.92 c -16.87,17.92 -36.85,37.87 -49.08,52.77 -3.48,3.64 -6.47,5.2 -10.13,0 -9.21,-11.22 -22.81,-25.3 -36.17,-39.22 -17.76,21.21 -49.74,51.69 -66.75,72.4 -3.48,3.64 -6.47,5.2 -10.13,0 -10.76,-13.1 -27.5,-30.1 -42.85,-46.19" /><path
         id="path114"
         style="fill:#d01e25;fill-opacity:1;fill-rule:evenodd;stroke:none"
         d="M 3931.35,1442.85 C 3606.38,1025.6 3099.28,757.18 2529.45,757.18 c -456.4,0 -872.52,172.226 -1187.11,455.15 L 910.164,705.168 C 1341.18,323.082 1908.16,90.9492 2529.45,90.9492 c 717.2,0 1362.17,309.1678 1808.96,801.4808 l -407.06,550.42" /><path
         id="path116"
         style="fill:#fad606;fill-opacity:1;fill-rule:nonzero;stroke:none"
         d="m 308.172,2324.53 -1.133,61.19 95.238,68.37 -0.3,16.2 -96.465,-1.79 -0.949,51.47 245.476,4.54 1.41,-76.31 c 0.321,-17.27 -1.449,-31.89 -5.312,-43.84 -3.856,-11.96 -9.137,-21.65 -15.844,-29.1 -6.703,-7.44 -14.523,-12.87 -23.461,-16.28 -8.941,-3.41 -18.449,-5.2 -28.527,-5.38 -8.879,-0.17 -17,1 -24.367,3.51 -7.372,2.5 -13.915,5.92 -19.633,10.25 -5.723,4.34 -10.617,9.53 -14.692,15.57 -4.07,6.05 -7.136,12.54 -9.183,19.46 z m 166.996,81.93 c 11.277,0.22 19.977,3.62 26.094,10.21 6.121,6.59 9.07,16.01 8.84,28.25 l -0.504,27.35 -69.828,-1.29 0.511,-27.71 c 0.219,-11.76 3.508,-20.88 9.867,-27.36 6.36,-6.49 14.7,-9.63 25.02,-9.45 z m 60.523,-235.56 -12.617,94.2 -52.453,-7.02 12.188,-90.99 -42.102,-5.64 -12.187,90.99 -60.301,-8.08 13.14,-98.12 -44.246,-5.93 -19.976,149.15 243.351,32.59 19.446,-145.22 z m 86.668,36.31 -37.199,66.21 27.848,17.17 42.883,-62.55 z M 537.59,2004.13 c 4.906,1.14 9.469,2.99 13.68,5.56 4.207,2.58 7.628,5.89 10.265,9.95 2.633,4.05 4.34,8.94 5.113,14.66 0.77,5.72 0.321,12.2 -1.351,19.46 l -5.828,25.25 -74.016,-17.08 5.586,-24.2 c 1.941,-8.42 4.586,-15.08 7.934,-19.97 3.347,-4.89 7.078,-8.53 11.203,-10.9 4.113,-2.38 8.543,-3.7 13.289,-3.96 4.738,-0.26 9.445,0.15 14.125,1.23 z m 50.64,134.35 17.649,-76.47 c 2.969,-12.86 4.203,-25.14 3.699,-36.83 -0.508,-11.69 -2.98,-22.3 -7.433,-31.83 -4.45,-9.52 -10.989,-17.74 -19.618,-24.66 -8.625,-6.92 -19.488,-11.89 -32.582,-14.91 -24.086,-5.56 -44.828,-2.4 -62.222,9.47 -17.395,11.87 -29.707,33.48 -36.942,64.81 l -5.668,24.56 -84.539,-19.51 L 349,2083.27 Z M 423.32,1786.3 c -3.992,12.33 -5.965,24.43 -5.902,36.31 0.062,11.88 2.719,23.14 7.969,33.8 5.25,10.66 13.453,20.38 24.609,29.17 11.152,8.79 25.977,16.18 44.469,22.17 l 141.094,45.73 15.871,-48.97 -144.86,-46.95 c -17.125,-5.55 -29.355,-13.36 -36.683,-23.43 -7.336,-10.08 -8.965,-21.39 -4.899,-33.94 2.52,-7.77 6.035,-13.76 10.555,-17.97 4.52,-4.21 9.73,-7.06 15.641,-8.55 5.906,-1.5 12.394,-1.85 19.457,-1.08 7.066,0.78 14.363,2.39 21.898,4.83 l 144.863,46.95 15.758,-48.63 -140.406,-45.51 c -18.039,-5.84 -34.152,-8.67 -48.344,-8.47 -14.187,0.19 -26.558,2.93 -37.101,8.22 -10.543,5.29 -19.454,12.74 -26.739,22.36 -7.281,9.63 -13.031,20.95 -17.25,33.96 z m 287.196,-37.14 28.011,-62 c 5.239,-11.59 8.86,-22.66 10.864,-33.22 2,-10.55 2.179,-20.28 0.539,-29.18 -1.641,-8.9 -5.172,-16.82 -10.602,-23.75 -5.426,-6.93 -12.844,-12.52 -22.25,-16.77 -6.34,-2.86 -12.551,-4.42 -18.629,-4.67 -6.082,-0.24 -11.902,0.56 -17.469,2.38 -5.57,1.83 -10.832,4.59 -15.789,8.28 -4.957,3.68 -9.324,7.97 -13.109,12.84 l -0.656,-0.3 c 2.762,-9.02 3.847,-17.55 3.265,-25.58 -0.589,-8.03 -2.347,-15.35 -5.293,-21.95 -2.945,-6.6 -7.043,-12.4 -12.285,-17.4 -5.246,-5 -11.152,-8.99 -17.715,-11.95 -10.277,-4.64 -20.296,-6.8 -30.058,-6.47 -9.766,0.33 -18.957,2.76 -27.59,7.29 -8.629,4.52 -16.516,10.9 -23.656,19.13 -7.141,8.23 -13.235,17.93 -18.27,29.08 l -33.054,73.16 z M 601.992,1574.91 c 9.406,4.25 15.606,10.93 18.594,20.05 2.992,9.13 1.769,19.7 -3.664,31.73 l -10.082,22.31 -64.629,-29.2 10.969,-24.28 c 5.234,-11.59 12.058,-19.11 20.461,-22.56 8.402,-3.44 17.855,-2.79 28.351,1.95 z m 89.598,53.51 c 8.308,3.76 13.371,9.6 15.191,17.53 1.813,7.93 0.352,17.15 -4.39,27.65 l -6.969,15.42 -54.133,-24.46 7.707,-17.06 c 5.039,-11.15 11.215,-18.11 18.516,-20.87 7.301,-2.75 15.328,-2.16 24.078,1.79 z m 105.152,-52.37 25.375,-44.79 -174.781,-99.02 48.801,-86.13 -38.84,-22.01 -74.176,130.93 z m 86.313,-142.61 29.609,-42.11 -200.832,-141.23 -29.613,42.11 z m -25.258,-363.86 c -16.625,7.54 -31.207,18.58 -43.738,33.13 -14.723,17.09 -24.45,34.45 -29.172,52.08 -4.731,17.62 -5.766,34.55 -3.11,50.77 2.657,16.23 8.164,31.34 16.524,45.35 8.363,14.02 18.269,25.95 29.726,35.82 13.278,11.44 27.981,19.83 44.121,25.18 16.141,5.34 32.555,7.53 49.247,6.54 16.687,-0.99 32.921,-5.22 48.703,-12.69 15.777,-7.47 29.855,-18.39 42.222,-32.76 13.16,-15.27 22.26,-31.35 27.3,-48.23 5.04,-16.89 6.61,-33.52 4.71,-49.88 -1.9,-16.36 -6.89,-31.9 -14.96,-46.62 -8.08,-14.71 -18.57,-27.63 -31.479,-38.75 -14.188,-12.22 -29.813,-20.92 -46.875,-26.12 -17.063,-5.19 -34.215,-6.98 -51.453,-5.35 l -9.168,-51.14 -42.543,8.02 z m 4.297,177.6 c -9.09,-7.83 -16.254,-16.61 -21.492,-26.35 -5.235,-9.74 -8.442,-19.7 -9.629,-29.91 -1.188,-10.21 -0.325,-20.31 2.593,-30.32 2.911,-10 7.969,-19.18 15.172,-27.55 5.172,-6 11.352,-10.97 18.547,-14.91 l 8.82,49.89 42.543,-8.02 -9.793,-52.62 c 9.555,0.31 18.973,2.24 28.258,5.81 9.285,3.56 18.11,8.94 26.473,16.14 8.914,7.68 16.062,16.29 21.457,25.85 5.391,9.55 8.758,19.34 10.098,29.37 1.343,10.02 0.605,20.07 -2.215,30.15 -2.828,10.09 -8.074,19.58 -15.75,28.49 -7.203,8.37 -15.535,14.73 -24.996,19.09 -9.461,4.37 -19.364,6.76 -29.711,7.19 -10.352,0.44 -20.727,-1.21 -31.133,-4.95 -10.402,-3.73 -20.148,-9.52 -29.242,-17.35 z M 999.922,906.711 c -9.406,8.914 -16.922,18.605 -22.551,29.062 -5.625,10.461 -8.68,21.625 -9.168,33.497 -0.488,11.871 2.067,24.332 7.656,37.38 5.594,13.06 15.079,26.64 28.451,40.74 l 102.03,107.65 37.37,-35.41 -104.76,-110.52 c -12.39,-13.071 -19.39,-25.774 -21.01,-38.13 -1.62,-12.351 2.35,-23.066 11.94,-32.148 5.92,-5.613 11.87,-9.187 17.86,-10.727 5.98,-1.539 11.92,-1.55 17.82,-0.031 5.9,1.516 11.77,4.305 17.6,8.364 5.84,4.058 11.48,8.964 16.92,14.714 l 104.77,110.518 37.1,-35.17 -101.55,-107.121 c -13.04,-13.758 -25.84,-23.949 -38.4,-30.566 -12.55,-6.618 -24.72,-10.129 -36.51,-10.524 -11.79,-0.402 -23.18,1.883 -34.18,6.852 -11,4.968 -21.46,12.16 -31.388,21.57 z m 357.668,-27.344 -74.8,58.633 -32.65,-41.648 72.25,-56.633 -26.2,-33.434 -72.25,56.633 -37.53,-47.883 77.91,-61.074 -27.54,-35.133 -118.43,92.832 151.46,193.23 115.32,-90.39 z m 125.66,-27.91 44.68,-25.555 -121.88,-213.129 -44.69,25.555 z m 154.78,-158.094 c 3.57,8.422 4.29,16.301 2.15,23.633 -2.14,7.332 -7.26,13.106 -15.35,17.313 -7.24,3.761 -14.31,4.734 -21.21,2.91 -6.89,-1.824 -12.17,-6.25 -15.82,-13.278 -4.21,-8.089 -4.1,-16.195 0.34,-24.316 4.43,-8.125 11.45,-16.98 21.07,-26.578 18.49,-19.078 29.23,-37.176 32.24,-54.289 3,-17.117 0.24,-33.871 -8.29,-50.27 -4.09,-7.879 -9.73,-15.086 -16.92,-21.629 -7.19,-6.543 -15.51,-11.484 -24.95,-14.824 -9.45,-3.34 -19.85,-4.625 -31.22,-3.855 -11.36,0.769 -23.44,4.476 -36.21,11.117 -10.86,5.648 -20.02,12.367 -27.46,20.16 -7.45,7.793 -12.89,16.441 -16.34,25.941 -3.44,9.5 -4.92,19.668 -4.43,30.5 0.5,10.836 3.25,22.118 8.26,33.844 l 45.04,-23.414 c -4.25,-10.773 -5.39,-20.523 -3.44,-29.25 1.96,-8.723 8.05,-15.746 18.27,-21.058 8.94,-4.649 17.41,-5.536 25.4,-2.657 7.98,2.879 13.97,8.153 17.96,15.821 4.76,9.156 5.49,18.105 2.19,26.855 -3.29,8.742 -10.7,18.953 -22.22,30.617 -17.95,18.535 -28.33,36.035 -31.13,52.504 -2.8,16.469 -0.33,32.153 7.42,47.059 4.76,9.16 10.92,16.574 18.47,22.254 7.55,5.675 15.79,9.566 24.74,11.683 8.94,2.114 18.42,2.395 28.43,0.84 10.02,-1.551 19.81,-4.82 29.39,-9.805 10.44,-5.421 19.06,-11.863 25.87,-19.324 6.8,-7.461 11.8,-15.539 14.99,-24.23 3.19,-8.692 4.44,-17.86 3.75,-27.512 -0.69,-9.652 -3.31,-19.379 -7.86,-29.18 z m 102.41,21.907 48.01,-18.567 -72.45,-187.359 92.34,-35.703 -16.1,-41.637 -140.35,54.269 z m 228.24,-81.54 46.36,-13.367 18.76,-260.945 -50.84,14.668 -2.87,58.898 -87.16,25.149 -34.15,-48.227 -49.81,14.367 z m -53.82,-143.71 63.3,-18.258 -3.1,61.965 c -0.38,7.355 -0.62,14.105 -0.72,20.253 -0.1,6.149 -0.09,12.454 0.02,18.915 l -1.72,0.5 c -6.76,-11.293 -14.05,-22.297 -21.9,-33.028 z m 414.84,-175.153 -49.24,6.598 4.24,121.109 c 0.06,4.106 0.17,8.574 0.34,13.391 0.16,4.824 0.32,9.644 0.48,14.465 0.16,4.82 0.37,9.515 0.62,14.082 0.24,4.57 0.49,8.652 0.73,12.254 l -2.14,0.285 c -3.2,-7.563 -6.7,-16.113 -10.52,-25.649 -3.82,-9.539 -7.6,-18.297 -11.33,-26.269 l -51.29,-114.445 -35.68,4.777 -19.84,125.789 c -1.36,7.93 -2.68,16.582 -3.96,25.957 -1.29,9.371 -2.28,18.707 -2.97,28 l -2.85,0.383 c -1.57,-8.028 -3.32,-16.567 -5.25,-25.629 -1.95,-9.063 -3.8,-17.473 -5.56,-25.227 l -28.79,-120 -46.03,6.164 61.5,239.477 56.38,-7.551 20.29,-119.676 c 1.21,-7.179 2.47,-14.976 3.76,-23.382 1.3,-8.411 2.34,-16.055 3.11,-22.938 l 1.43,-0.191 c 2.55,6.437 5.64,13.656 9.25,21.64 3.62,7.992 6.8,15.074 9.57,21.242 l 50.35,110.211 56.02,-7.504 z m 68.16,242.68 51.34,-3.899 -18.58,-244.816 -51.34,3.895 z M 2663,313.988 c -16.42,-7.988 -34.23,-12.156 -53.43,-12.511 -22.55,-0.414 -42.12,3.179 -58.7,10.796 -16.58,7.614 -30.27,17.625 -41.07,30.028 -10.78,12.402 -18.9,26.297 -24.35,41.679 -5.45,15.379 -8.31,30.629 -8.59,45.747 -0.32,17.519 2.61,34.195 8.8,50.031 6.19,15.836 14.99,29.863 26.41,42.078 11.41,12.211 25.04,22.004 40.86,29.379 15.83,7.371 33.22,11.234 52.18,11.582 20.16,0.375 38.34,-2.891 54.55,-9.793 16.21,-6.902 30,-16.309 41.39,-28.219 11.38,-11.91 20.15,-25.672 26.33,-41.281 6.16,-15.609 9.41,-31.934 9.72,-48.969 0.35,-18.715 -2.93,-36.305 -9.83,-52.754 -6.89,-16.445 -16.47,-30.789 -28.73,-43.015 l 33.5,-39.707 -33.34,-27.621 z m -133.95,116.703 c 0.22,-11.996 2.41,-23.117 6.56,-33.363 4.15,-10.246 9.78,-19.082 16.87,-26.512 7.1,-7.429 15.43,-13.218 24.99,-17.363 9.56,-4.144 19.85,-6.113 30.89,-5.91 7.92,0.145 15.7,1.73 23.32,4.75 l -32.76,38.645 33.34,27.621 34.24,-41.137 c 5.87,7.551 10.39,16.035 13.57,25.453 3.19,9.422 4.68,19.648 4.48,30.688 -0.22,11.757 -2.28,22.761 -6.19,33.011 -3.91,10.25 -9.3,19.094 -16.15,26.528 -6.86,7.437 -15.07,13.285 -24.63,17.55 -9.56,4.262 -20.22,6.286 -31.98,6.067 -11.04,-0.203 -21.26,-2.551 -30.65,-7.047 -9.41,-4.492 -17.57,-10.586 -24.51,-18.274 -6.94,-7.691 -12.3,-16.73 -16.06,-27.121 -3.77,-10.394 -5.55,-21.589 -5.33,-33.586 z m 349.78,-103.457 c -12.78,-2.191 -25.04,-2.406 -36.78,-0.64 -11.75,1.761 -22.52,6.004 -32.31,12.726 -9.8,6.723 -18.25,16.235 -25.35,28.532 -7.09,12.296 -12.28,28.023 -15.57,47.183 l -25.04,146.192 50.74,8.695 25.71,-150.094 c 3.04,-17.742 9.02,-30.961 17.94,-39.66 8.92,-8.699 19.88,-11.934 32.89,-9.707 8.04,1.379 14.47,4.004 19.29,7.871 4.81,3.867 8.38,8.617 10.7,14.254 2.33,5.633 3.61,12 3.85,19.102 0.25,7.105 -0.3,14.558 -1.64,22.367 l -25.71,150.09 50.38,8.632 24.93,-145.48 c 3.2,-18.688 3.69,-35.039 1.46,-49.055 -2.22,-14.019 -6.71,-25.867 -13.45,-35.543 -6.74,-9.676 -15.4,-17.429 -25.96,-23.261 -10.57,-5.829 -22.6,-9.895 -36.08,-12.204 z m 233.28,266.641 -91.31,-26.34 14.66,-50.847 88.21,25.441 11.77,-40.816 -88.2,-25.442 16.86,-58.457 95.12,27.441 12.37,-42.894 -144.58,-41.703 -68.05,235.898 140.78,40.614 z m 177.36,109.375 c 20.12,9.094 39.17,14.145 57.15,15.156 17.98,1.012 34.46,-1.218 49.44,-6.695 14.99,-5.481 28.17,-13.813 39.54,-25.004 11.38,-11.187 20.52,-24.437 27.44,-39.746 6.82,-15.09 10.55,-30.652 11.21,-46.684 0.66,-16.031 -2.02,-31.527 -8.03,-46.488 -6.01,-14.965 -15.31,-28.91 -27.91,-41.844 -12.59,-12.929 -28.73,-23.843 -48.41,-32.734 L 3313.79,444.824 3212.7,668.57 Z m 80.77,-183.148 c 13.12,5.929 23.71,12.953 31.76,21.066 8.05,8.113 13.77,16.754 17.13,25.914 3.37,9.156 4.64,18.746 3.79,28.77 -0.84,10.023 -3.43,19.847 -7.78,29.468 -4.74,10.496 -10.7,19.325 -17.89,26.485 -7.18,7.16 -15.36,12.418 -24.52,15.785 -9.15,3.371 -19.31,4.574 -30.46,3.617 -11.16,-0.957 -23.08,-4.301 -35.77,-10.031 l -28.21,-12.75 63.73,-141.071 z m 215.35,285 -82.69,-46.848 26.09,-46.043 79.87,45.25 20.94,-36.961 -79.87,-45.25 29.99,-52.934 86.13,48.797 22.01,-38.84 -130.93,-74.171 -121.02,213.621 127.48,72.218 z m 431.64,66.773 -39.1,-30.648 -83.75,87.582 c -2.9,2.914 -6.02,6.117 -9.36,9.597 -3.33,3.481 -6.67,6.965 -10.01,10.446 -3.34,3.48 -6.56,6.906 -9.65,10.273 -3.1,3.367 -5.85,6.391 -8.27,9.074 l -1.7,-1.332 c 3.19,-7.566 6.87,-16.043 11.03,-25.437 4.16,-9.395 7.79,-18.211 10.89,-26.45 l 46.13,-116.621 -28.33,-22.211 -103.9,73.622 c -6.63,4.562 -13.75,9.66 -21.36,15.281 -7.61,5.621 -14.98,11.429 -22.12,17.426 l -2.27,-1.778 c 4.66,-6.719 9.56,-13.937 14.69,-21.652 5.13,-7.715 9.86,-14.918 14.18,-21.594 l 65.81,-104.387 -36.55,-28.648 -128.51,211.219 44.76,35.09 99.85,-69.024 c 5.99,-4.144 12.45,-8.687 19.38,-13.629 6.92,-4.941 13.11,-9.539 18.58,-13.793 l 1.14,0.891 c -2.83,6.328 -5.84,13.57 -9.04,21.734 -3.2,8.168 -6.04,15.395 -8.53,21.676 l -43.74,112.998 44.48,34.87 z m -91.75,256.895 33.19,35.01 240.35,-103.33 -36.4,-38.41 -53.63,24.54 -62.41,-65.838 27.13,-52.496 -35.67,-37.625 z m 102.87,-113.88 45.33,47.81 -56.46,25.74 c -6.7,3.04 -12.81,5.94 -18.31,8.68 -5.51,2.74 -11.11,5.64 -16.79,8.71 l -1.24,-1.3 c 6.92,-11.19 13.34,-22.73 19.26,-34.63 z m 259.34,141 c -7.99,-10.2 -16.94,-18.59 -26.82,-25.18 -9.89,-6.58 -20.72,-10.67 -32.49,-12.26 -11.77,-1.6 -24.42,-0.23 -37.94,4.12 -13.52,4.34 -27.93,12.51 -43.23,24.5 l -116.73,91.5 31.76,40.52 119.85,-93.94 c 14.17,-11.11 27.48,-16.89 39.93,-17.35 12.44,-0.46 22.74,4.51 30.88,14.9 5.04,6.43 8.04,12.69 9.01,18.78 0.97,6.11 0.43,12.02 -1.64,17.75 -2.06,5.74 -5.39,11.32 -9.98,16.75 -4.59,5.42 -10,10.58 -16.23,15.47 l -119.85,93.94 31.54,40.23 116.16,-91.06 c 14.93,-11.69 26.27,-23.48 34.03,-35.36 7.77,-11.88 12.4,-23.67 13.9,-35.37 1.51,-11.69 0.3,-23.26 -3.61,-34.67 -3.92,-11.41 -10.1,-22.51 -18.54,-33.27 z m 188.26,291.87 -32.75,-51.7 -117.15,-4.63 -8.67,-13.68 81.51,-51.63 -27.55,-43.49 -207.41,131.39 40.84,64.47 c 9.25,14.6 18.78,25.83 28.59,33.68 9.8,7.85 19.55,13.04 29.24,15.56 9.7,2.52 19.22,2.75 28.55,0.67 9.34,-2.08 18.26,-5.82 26.78,-11.22 7.5,-4.75 13.64,-10.2 18.41,-16.34 4.77,-6.15 8.35,-12.61 10.73,-19.38 2.39,-6.77 3.63,-13.8 3.69,-21.08 0.07,-7.29 -0.94,-14.4 -3.05,-21.3 z m -184.52,23.56 c -9.52,6.04 -18.66,7.99 -27.4,5.86 -8.74,-2.14 -16.39,-8.38 -22.93,-18.72 l -14.65,-23.11 59,-37.37 14.84,23.41 c 6.29,9.94 8.57,19.36 6.83,28.28 -1.74,8.91 -6.97,16.13 -15.69,21.65 z m -19.14,122.59 23.74,45.67 217.85,-113.25 -23.75,-45.68 z m 101.89,104.14 -24.24,-53.04 -40.6,18.56 70.2,153.56 40.59,-18.56 -24.39,-53.37 182.69,-83.52 -21.55,-47.15 z m 32.39,204.61 15.65,45.64 261.55,5.83 -17.16,-50.06 -58.97,0.06 -29.43,-85.82 46.48,-36.49 -16.82,-49.03 z m 140.88,-60.86 21.36,62.31 -62.04,-0.03 c -7.36,-0.01 -14.12,0.09 -20.27,0.29 -6.14,0.2 -12.44,0.52 -18.88,0.96 l -0.58,-1.7 c 10.94,-7.31 21.57,-15.14 31.89,-23.5 z m -11.56,221.84 c 2.84,-0.49 6.35,-0.97 10.52,-1.44 4.19,-0.47 8.41,-1.01 12.69,-1.62 4.28,-0.62 8.44,-1.21 12.48,-1.78 4.05,-0.57 7.49,-1.1 10.32,-1.58 l 120.29,-20.61 -7.48,-43.65 -241.99,41.46 7.48,43.65 115.51,49.61 c 9.49,4.21 17.82,7.72 24.99,10.51 7.18,2.79 13.56,5.22 19.16,7.31 5.59,2.08 10.51,3.79 14.75,5.14 4.25,1.34 8.05,2.57 11.41,3.7 l 0.19,1.07 c -3.08,0.52 -6.58,1.07 -10.5,1.61 -3.92,0.55 -7.91,1.12 -11.94,1.69 -4.05,0.57 -7.97,1.11 -11.78,1.65 -3.8,0.53 -7.01,1.02 -9.61,1.46 l -124.19,21.28 7.48,43.64 241.99,-41.46 -7.48,-43.64 -105.31,-45.51 c -12.06,-5 -22.28,-9.21 -30.66,-12.65 -8.38,-3.43 -15.56,-6.28 -21.55,-8.54 -5.99,-2.26 -11.07,-4.19 -15.23,-5.79 -4.18,-1.6 -7.94,-2.96 -11.3,-4.09 z m -43.05,215.44 6.84,51.02 243.34,-32.59 -6.83,-51.02 z m 60.58,229.73 -1.78,-95.02 52.91,-0.99 1.72,91.78 42.47,-0.79 -1.71,-91.79 60.83,-1.13 1.84,98.98 44.64,-0.83 -2.81,-150.46 -245.48,4.58 2.74,146.5 44.63,-0.83" /></g></g></svg>